<?xml version="1.0" encoding="UTF-8"?>
<svg width="32px" height="32px" viewBox="0 0 32 32" version="1.1" xmlns="http://www.w3.org/2000/svg" xmlns:xlink="http://www.w3.org/1999/xlink">
    <!-- Generator: Sketch 60.1 (88133) - https://sketch.com -->
    <title>Group 2</title>
    <desc>Created with Sketch.</desc>
    <g id="Page-1" stroke="none" stroke-width="1" fill="none" fill-rule="evenodd">
        <g id="1.2-Order-Confirmation-Page---Payment-Successful---Complete-Details-Opened---Desktop" transform="translate(-314.000000, -1297.000000)">
            <g id="Group-20" transform="translate(80.000000, 1173.000000)">
                <g id="Group-2" transform="translate(234.000000, 124.000000)">
                    <circle id="Oval-4" fill="#4CAF50" cx="16" cy="16" r="16"></circle>
                    <path d="M11.258,15.011 C12.554,17.558 14.642,19.646 17.189,20.942 L19.169,18.962 C19.421,18.71 19.772,18.638 20.087,18.737 C21.095,19.07 22.175,19.25 23.3,19.25 C23.7970563,19.25 24.2,19.6529437 24.2,20.15 L24.2,23.3 C24.2,23.7970563 23.7970563,24.2 23.3,24.2 C14.8500433,24.2 8,17.3499567 8,8.9 C8,8.66130516 8.09482116,8.43238664 8.2636039,8.2636039 C8.43238664,8.09482116 8.66130516,8 8.9,8 L12.05,8 C12.5470563,8 12.95,8.40294373 12.95,8.9 C12.95,10.025 13.13,11.105 13.463,12.113 C13.562,12.428 13.49,12.779 13.238,13.031 L11.258,15.011 Z" id="Shape" fill="#FFFFFF" fill-rule="nonzero"></path>
                </g>
            </g>
        </g>
    </g>
</svg>