<?xml version="1.0" encoding="UTF-8"?>
<svg width="16px" height="16px" viewBox="0 0 16 16" version="1.1" xmlns="http://www.w3.org/2000/svg" xmlns:xlink="http://www.w3.org/1999/xlink">
    <!-- Generator: Sketch 60.1 (88133) - https://sketch.com -->
    <title>Group</title>
    <desc>Created with Sketch.</desc>
    <g id="Desktop" stroke="none" stroke-width="1" fill="none" fill-rule="evenodd">
        <g id="1.10-Shipping-&amp;-Payment---Scrolled-Up-State---Desktop" transform="translate(-764.000000, -245.000000)" fill="#D88350" fill-rule="nonzero">
            <g id="Group-22">
                <g id="Group-21">
                    <g transform="translate(80.000000, 76.000000)">
                        <g id="Group-20">
                            <g transform="translate(0.000000, -231.000000)" id="Group-17">
                                <g transform="translate(24.000000, 32.000000)">
                                    <g id="Group-6" transform="translate(16.000000, 352.000000)">
                                        <g id="Group" transform="translate(644.000000, 16.000000)">
                                            <path d="M5.52612967,8.38901961 L4.79685658,10.8047059 C4.75284872,11.027451 4.94774067,11.225098 5.1740668,11.1811765 L7.59449902,10.4533333 C7.74852652,10.4219608 7.88998035,10.3466667 8.00314342,10.2368627 L15.7359528,2.51921569 C16.0471513,2.20862745 16.0471513,1.70352941 15.7359528,1.39294118 L14.6043222,0.263529412 C14.2931238,-0.0470588235 13.7870334,-0.0470588235 13.475835,0.263529412 L5.74302554,7.98117647 C5.63300589,8.09411765 5.55442043,8.23529412 5.52612967,8.38901961 Z" id="Shape"></path>
                                            <path d="M15.1701375,8 C14.7300589,8 14.3717092,8.35764706 14.3717092,8.79686275 L14.3717092,14.374902 L1.59685658,14.374902 L1.59685658,1.62509804 L7.18585462,1.62509804 C7.6259332,1.62509804 7.98428291,1.26745098 7.98428291,0.828235294 C7.98428291,0.389019608 7.6259332,0.031372549 7.18585462,0.031372549 L0.798428291,0.031372549 C0.358349705,0.031372549 0,0.389019608 0,0.828235294 L0,15.1717647 C0,15.6109804 0.358349705,15.9686275 0.798428291,15.9686275 L15.1701375,15.9686275 C15.6102161,15.9686275 15.9685658,15.6109804 15.9685658,15.1717647 L15.9685658,8.79686275 C15.9685658,8.35764706 15.6102161,8 15.1701375,8 Z" id="Shape"></path>
                                        </g>
                                    </g>
                                </g>
                            </g>
                        </g>
                    </g>
                </g>
            </g>
        </g>
    </g>
</svg>