<?xml version="1.0" encoding="UTF-8"?>
<svg width="52px" height="50px" viewBox="0 0 52 50" version="1.1" xmlns="http://www.w3.org/2000/svg" xmlns:xlink="http://www.w3.org/1999/xlink">
    <!-- Generator: Sketch 60.1 (88133) - https://sketch.com -->
    <title>Group 6</title>
    <desc>Created with Sketch.</desc>
    <defs>
        <filter x="-55.6%" y="-55.6%" width="211.1%" height="211.1%" filterUnits="objectBoundingBox" id="filter-1">
            <feOffset dx="0" dy="2" in="SourceAlpha" result="shadowOffsetOuter1"></feOffset>
            <feGaussianBlur stdDeviation="4" in="shadowOffsetOuter1" result="shadowBlurOuter1"></feGaussianBlur>
            <feColorMatrix values="0 0 0 0 0   0 0 0 0 0   0 0 0 0 0  0 0 0 0.2 0" type="matrix" in="shadowBlurOuter1" result="shadowMatrixOuter1"></feColorMatrix>
            <feMerge>
                <feMergeNode in="shadowMatrixOuter1"></feMergeNode>
                <feMergeNode in="SourceGraphic"></feMergeNode>
            </feMerge>
        </filter>
    </defs>
    <g id="Category-Listing" stroke="none" stroke-width="1" fill="none" fill-rule="evenodd">
        <g id="1-A----Category-Listing----Simple---Full-Length" transform="translate(-372.000000, -421.000000)">
            <g id="Group-6" filter="url(#filter-1)" transform="translate(380.000000, 427.000000)">
                <circle id="Oval" fill="#FFFFFF" cx="18" cy="18" r="18"></circle>
                <path d="M17.8449869,9.02718134 C16.9613161,11.5461168 16.0758814,14.0650522 15.1904468,16.5822285 C14.7247999,17.9050214 14.2468063,19.2225372 13.7882146,20.5470892 C13.6083056,21.0642449 13.3208039,21.4653044 12.7546196,21.5778826 C12.18138,21.6904607 11.7774666,21.3580034 11.5322965,20.9270403 C10.9079063,19.8258856 10.2535313,18.7229718 9.78435673,17.5496967 C9.57093523,17.0149507 9.28519736,16.5857466 8.93243455,16.235699 L15.6278727,10.0421434 C15.7213548,9.95595082 15.7266463,9.81171011 15.6402194,9.71848135 C15.5537925,9.6252526 15.4091597,9.6199755 15.3156776,9.70616812 L8.58496318,15.9313863 C8.24631088,15.6675313 7.85827179,15.4546883 7.42260973,15.2752669 C6.49660735,14.8917977 5.60058982,14.429172 4.7063361,13.9735824 C4.1172222,13.6727878 3.58278655,13.3016318 3.60042469,12.4379465 C3.58631418,11.9032005 3.98493615,11.5988877 4.49644222,11.4141893 C5.81753894,10.9357323 7.14392711,10.4695885 8.47207908,10.0087218 C10.9996246,9.13272333 13.5324616,8.27079711 16.0564795,7.38424442 C16.6120809,7.18899174 17.1535718,7.05706426 17.635093,7.47923221 C18.128961,7.91547242 18.0390065,8.47836301 17.8449869,9.02718134 Z" id="Shape" fill="#8BC34A" fill-rule="nonzero"></path>
                <path d="M12.6336,21.6 L11.6544,21.6 L10.596,19.8072 L9.7536,19.8072 L9.7536,21.6 L8.9112,21.6 L8.9112,16.7976 L11.0208,16.7976 C11.9712,16.7976 12.5976,17.4096 12.5976,18.3024 C12.5976,19.152 12.036,19.62 11.4528,19.7136 L12.6336,21.6 Z M10.9128,19.0656 C11.388,19.0656 11.7336,18.7632 11.7336,18.2952 C11.7336,17.8344 11.388,17.5392 10.9128,17.5392 L9.7536,17.5392 L9.7536,19.0656 L10.9128,19.0656 Z M16.7304,21.6 L16.7304,20.8584 L14.2824,20.8584 L14.2824,19.5192 L16.68,19.5192 L16.68,18.7776 L14.2824,18.7776 L14.2824,17.5392 L16.7304,17.5392 L16.7304,16.7976 L13.44,16.7976 L13.44,21.6 L16.7304,21.6 Z M21.9216,21.6 L20.964,21.6 L20.6112,20.6712 L18.408,20.6712 L18.0552,21.6 L17.0976,21.6 L18.984,16.7976 L20.0352,16.7976 L21.9216,21.6 Z M20.3736,19.9296 L19.5096,17.64 L18.6456,19.9296 L20.3736,19.9296 Z M24.2328,21.6 L22.44,21.6 L22.44,16.7976 L24.2256,16.7976 C25.7304,16.7976 26.7384,17.7912 26.7384,19.1952 C26.7384,20.6136 25.7304,21.6 24.2328,21.6 Z M24.2256,20.8584 C25.2696,20.8584 25.8744,20.1096 25.8744,19.1952 C25.8744,18.2736 25.2984,17.5392 24.2328,17.5392 L23.2824,17.5392 L23.2824,20.8584 L24.2256,20.8584 Z M29.7624,21.6 L29.7624,19.6056 L31.62,16.7976 L30.6552,16.7976 L29.3376,18.8496 L28.02,16.7976 L27.0552,16.7976 L28.92,19.6056 L28.92,21.6 L29.7624,21.6 Z" id="READY" fill="#212121"></path>
                <path d="M18.36,27.0864 C19.6488,27.0864 20.2176,26.3952 20.2176,25.596 C20.2176,23.8104 17.424,24.3648 17.424,23.4648 C17.424,23.112 17.7408,22.8672 18.2304,22.8672 C18.7344,22.8672 19.2456,23.04 19.6272,23.4216 L20.1024,22.7952 C19.6632,22.3632 19.0512,22.1184 18.3096,22.1184 C17.2512,22.1184 16.56,22.7304 16.56,23.5296 C16.56,25.2936 19.3536,24.6672 19.3536,25.6752 C19.3536,25.9992 19.0872,26.3376 18.396,26.3376 C17.7264,26.3376 17.2008,26.0208 16.8768,25.668 L16.4016,26.3232 C16.8336,26.7696 17.4744,27.0864 18.36,27.0864 Z M25.1712,27 L25.1712,22.1976 L24.3288,22.1976 L24.3288,24.156 L21.8304,24.156 L21.8304,22.1976 L20.988,22.1976 L20.988,27 L21.8304,27 L21.8304,24.8976 L24.3288,24.8976 L24.3288,27 L25.1712,27 Z M27.036,27 L27.036,22.1976 L26.1936,22.1976 L26.1936,27 L27.036,27 Z M28.9008,27 L28.0584,27 L28.0584,22.1976 L30.1752,22.1976 C31.1832,22.1976 31.7376,22.8816 31.7376,23.7024 C31.7376,24.516 31.176,25.2 30.1752,25.2 L28.9008,25.2 L28.9008,27 Z M30.06,24.4584 C30.5352,24.4584 30.8736,24.156 30.8736,23.7024 C30.8736,23.2416 30.5352,22.9392 30.06,22.9392 L28.9008,22.9392 L28.9008,24.4584 L30.06,24.4584 Z" id="SHIP" fill="#212121"></path>
                <path d="M9.6024,27.0864 C9.804,27.0864 9.984,27.0216 10.1136,26.9208 L10.056,26.4888 C9.984,26.5464 9.8544,26.604 9.7248,26.604 C9.4944,26.604 9.3792,26.4888 9.3792,26.28 C9.3792,26.2296 9.3792,26.1792 9.3864,26.1432 L9.8688,23.9976 L10.5744,23.9976 L10.6824,23.5224 L9.9696,23.5224 L10.1784,22.572 L9.6456,22.572 L9.4368,23.5224 L8.8608,23.5224 L8.7528,23.9976 L9.3288,23.9976 L8.8248,26.2512 C8.8104,26.3304 8.8032,26.4168 8.8032,26.4528 C8.8032,26.892 9.1128,27.0864 9.6024,27.0864 Z M12.396,27.0864 C11.4024,27.0864 10.8048,26.46 10.8048,25.5384 C10.8048,24.444 11.6256,23.436 12.7416,23.436 C13.7352,23.436 14.3328,24.0624 14.3328,24.9768 C14.3328,26.0784 13.512,27.0864 12.396,27.0864 Z M12.4104,26.604 C13.2024,26.604 13.764,25.8192 13.764,24.9984 C13.764,24.3432 13.3824,23.9184 12.7272,23.9184 C11.9424,23.9184 11.3736,24.7032 11.3736,25.524 C11.3736,26.1792 11.7552,26.604 12.4104,26.604 Z" id="to" fill="#212121"></path>
            </g>
        </g>
    </g>
</svg>