<?xml version="1.0" encoding="UTF-8"?>
<svg width="25px" height="17px" viewBox="0 0 25 17" version="1.1" xmlns="http://www.w3.org/2000/svg" xmlns:xlink="http://www.w3.org/1999/xlink">
    <!-- Generator: Sketch 60.1 (88133) - https://sketch.com -->
    <title>Mastercard card</title>
    <desc>Created with Sketch.</desc>
    <g id="Desktop" stroke="none" stroke-width="1" fill="none" fill-rule="evenodd">
        <g id="1.1-Shipping-&amp;-Payment---Landing---No-Saved-Addresses---Desktop" transform="translate(-990.000000, -500.000000)">
            <g id="Group-11" transform="translate(860.000000, 213.000000)">
                <g id="Group-2" transform="translate(24.000000, 211.000000)">
                    <g id="Group-5" transform="translate(40.000000, 72.000000)">
                        <g id="Group-4" transform="translate(32.000000, 4.000000)">
                            <g id="Mastercard-card" transform="translate(34.000000, 0.000000)">
                                <rect id="Rectangle-11" stroke="#4B4B4B" stroke-width="0.5" fill="#525252" x="0.25" y="0.25" width="24.5" height="16.5" rx="0.7"></rect>
                                <g id="Mastercard-logo" transform="translate(4.513889, 3.895833)">
                                    <polygon id="Fill-1" fill="#FBB331" points="11.1291556 0.00203203125 10.8852394 0.00852087054 10.6429374 0.0261944196 10.405478 0.0569310268 10.171247 0.0988523437 9.94177379 0.15204375 9.71552896 0.216505246 9.49565603 0.29232221 9.27909648 0.377787054 9.06890884 0.474521987 8.86509309 0.579367969 8.66611998 0.69386183 8.47360372 0.818003571 8.28745937 0.951793192 8.10777187 1.09369386 7.93607048 1.2436202 7.77082595 1.40165759 7.61356752 1.56772065 7.46429521 1.74198013 7.32317893 1.92093549 7.19157801 2.10791652 7.06796321 2.30309397 6.95403369 2.50143047 6.8482602 2.70787801 6.75353132 2.91910681 6.66848774 3.13520223 6.59465869 3.35770112 6.53042996 3.58335904 6.4775857 3.81396897 6.43578605 4.04782333 6.40537086 4.28645893 6.38769947 4.52833895 6.38124261 4.77346339 6.38769947 5.02012467 6.40537086 5.2636269 6.43578605 5.5022625 6.4775857 5.73936127 6.53042996 5.96988583 6.59465869 6.19725134 6.66848774 6.41975022 6.75353132 6.63746786 6.8482602 6.85031886 6.95403369 7.05668103 7.06796321 7.25663973 7.19157801 7.45181719 7.32317893 7.63888359 7.46429521 7.81946116 7.61356752 7.99354989 7.77082595 8.15969833 7.93607048 8.31927254 8.10777187 8.46928426 8.28745937 8.61109955 8.47360372 8.74497455 8.66611998 8.86911629 8.86509309 8.98523237 9.06890884 9.09007835 9.27909648 9.18681328 9.49565603 9.27227812 9.71552896 9.34800971 9.94177379 9.41255658 10.171247 9.46574799 10.405478 9.50775469 10.6429374 9.53832054 10.8852394 9.55607946 11.1291556 9.56248292 11.3746011 9.55607946 11.6169031 9.53832054 11.8543624 9.50775469 12.0902926 9.46574799 12.3196809 9.41255658 12.5459257 9.34800971 12.7674128 9.27227812 12.9839724 9.18681328 13.1957742 9.09007835 13.4012042 8.98523237 13.6000923 8.86911629 13.7943078 8.74497455 13.9803672 8.61109955 14.1601396 8.46928426 14.3333703 8.31927254 14.4986998 8.15969833 14.6575724 7.99354989 14.8066748 7.81946116 14.947961 7.63888359 15.0810912 7.45181719 15.204706 7.25663973 15.3202497 7.05668103 15.424409 6.85031886 15.5207521 6.63746786 15.6057957 6.41975022 15.6812389 6.19725134 15.7454676 5.96988583 15.7983119 5.73936127 15.8401116 5.5022625 15.8705267 5.2636269 15.8881981 5.02012467 15.894655 4.77346339 15.8881981 4.52833895 15.8705267 4.28645893 15.8401116 4.04782333 15.7983119 3.81396897 15.7454676 3.58335904 15.6812389 3.35770112 15.6057957 3.13520223 15.5207521 2.91910681 15.424409 2.70787801 15.3202497 2.50143047 15.204706 2.30309397 15.0810912 2.10791652 14.947961 1.92093549 14.8066748 1.74198013 14.6575724 1.56772065 14.4986998 1.40165759 14.3333703 1.2436202 14.1601396 1.09369386 13.9803672 0.951793192 13.7943078 0.818003571 13.6000923 0.69386183 13.4012042 0.579367969 13.1957742 0.474521987 12.9839724 0.377787054 12.7674128 0.29232221 12.5459257 0.216505246 12.3196809 0.15204375 12.0902926 0.0988523437 11.8543624 0.0569310268 11.6169031 0.0261944196 11.3746011 0.00852087054"></polygon>
                                    <polygon id="Fill-2" fill="#EC1C2D" points="4.76546543 0.00203203125 4.52001995 0.00852087054 4.27771794 0.0261944196 4.04025857 0.0569310268 3.80432846 0.0988523437 3.57494016 0.15204375 3.34869533 0.216505246 3.12720819 0.29232221 2.91064864 0.377787054 2.69884678 0.474521987 2.49341681 0.579367969 2.29452866 0.69386183 2.1003982 0.818003571 1.91416888 0.951793192 1.73448138 1.09369386 1.56125074 1.2436202 1.39592125 1.40165759 1.23704861 1.56772065 1.08786126 1.74198013 0.946660018 1.92093549 0.813529846 2.10791652 0.689915041 2.30309397 0.574371306 2.50143047 0.470127069 2.70787801 0.373868942 2.91910681 0.288825355 3.13520223 0.213382092 3.35770112 0.149153369 3.58335904 0.0963091017 3.81396897 0.0545094563 4.04782333 0.0240093085 4.28645893 0.00633791371 4.52833895 -3.39834515e-05 4.77346339 0.00633791371 5.02012467 0.0240093085 5.2636269 0.0545094563 5.5022625 0.0963091017 5.73936127 0.149153369 5.96988583 0.213382092 6.19725134 0.288825355 6.41975022 0.373868942 6.63746786 0.470127069 6.85031886 0.574371306 7.05668103 0.689915041 7.25663973 0.813529846 7.45181719 0.946660018 7.63888359 1.08786126 7.81946116 1.23704861 7.99354989 1.39592125 8.15969833 1.56125074 8.31927254 1.73448138 8.46928426 1.91416888 8.61109955 2.1003982 8.74497455 2.29452866 8.86911629 2.49341681 8.98523237 2.69884678 9.09007835 2.91064864 9.18681328 3.12720819 9.27227812 3.34869533 9.34800971 3.57494016 9.41255658 3.80432846 9.46574799 4.04025857 9.50775469 4.27771794 9.53832054 4.52001995 9.55607946 4.76546543 9.56248292 5.00938165 9.55607946 5.25168366 9.53832054 5.48914303 9.50775469 5.72337397 9.46574799 5.95284722 9.41255658 6.17909205 9.34800971 6.39896498 9.27227812 6.61552453 9.18681328 6.82579713 9.09007835 7.02952793 8.98523237 7.22850103 8.86911629 7.42101729 8.74497455 7.60716164 8.61109955 7.78684914 8.46928426 7.95855053 8.31927254 8.12379507 8.15969833 8.28105349 7.99354989 8.43024084 7.81946116 8.57144208 7.63888359 8.70295804 7.45181719 8.8266578 7.25663973 8.94050236 7.05668103 9.04636082 6.85031886 9.14108969 6.63746786 9.22613327 6.41975022 9.29996232 6.19725134 9.36410609 5.96988583 9.41712027 5.73936127 9.45875 5.5022625 9.48925015 5.2636269 9.50692154 5.02012467 9.5133784 4.77346339 9.50692154 4.52833895 9.48925015 4.28645893 9.45875 4.04782333 9.41712027 3.81396897 9.36410609 3.58335904 9.29996232 3.35770112 9.22613327 3.13520223 9.14108969 2.91910681 9.04636082 2.70787801 8.94050236 2.50143047 8.8266578 2.30309397 8.70295804 2.10791652 8.57144208 1.92093549 8.43024084 1.74198013 8.28105349 1.56772065 8.12379507 1.40165759 7.95855053 1.2436202 7.78684914 1.09369386 7.60716164 0.951793192 7.42101729 0.818003571 7.22850103 0.69386183 7.02952793 0.579367969 6.82579713 0.474521987 6.61552453 0.377787054 6.39896498 0.29232221 6.17909205 0.216505246 5.95284722 0.15204375 5.72337397 0.0988523437 5.48914303 0.0569310268 5.25168366 0.0261944196 5.00938165 0.00852087054"></polygon>
                                    <polygon id="Fill-3" fill="#FBB331" points="7.39051714 1.83240753 9.91769651 1.83240753 9.91769651 1.57582316 7.6086909 1.57582316"></polygon>
                                    <polygon id="Fill-4" fill="#FBB331" points="7.01183954 2.40970078 9.91767952 2.40970078 9.91767952 2.15311641 7.16425532 2.15311641"></polygon>
                                    <polygon id="Fill-5" fill="#FBB331" points="6.72944555 2.98534621 9.91768802 2.98534621 9.91768802 2.72876183 6.84176086 2.72876183"></polygon>
                                    <polygon id="Fill-6" fill="#FBB331" points="6.5352896 3.56258923 9.91766253 3.56258923 9.91766253 3.30608923 6.6155755 3.30608923"></polygon>
                                    <polygon id="Fill-7" fill="#FBB331" points="6.6476134 6.35223415 9.9257421 6.35223415 9.9257421 6.09564978 6.56741246 6.09564978"></polygon>
                                    <polygon id="Fill-8" fill="#FBB331" points="6.88990691 6.92950179 9.9257336 6.92950179 9.9257336 6.67291741 6.7696055 6.67291741"></polygon>
                                    <polygon id="Fill-9" fill="#FBB331" points="7.23008126 7.50517282 9.9257336 7.50517282 9.9257336 7.24858845 7.0679802 7.24858845"></polygon>
                                    <polygon id="Fill-10" fill="#FBB331" points="7.69861111 8.08242238 9.92571661 8.08242238 9.92571661 7.82431925 7.47236628 7.82431925"></polygon>
                                    <polygon id="Fill-11" fill="#FBB331" points="6.42137707 4.13827634 9.91767952 4.13827634 9.91767952 3.88169196 6.47107787 3.88169196"></polygon>
                                    <polygon id="Fill-12" fill="#FBB331" points="8.55222444 5.77656311 9.88556516 5.77656311 9.88556516 5.51997874 8.60031102 5.51997874"></polygon>
                                    <polygon id="Fill-13" fill="#FBB331" points="8.65810838 5.2008986 9.88559065 5.2008986 9.88559065 4.9427111 8.70627992 4.9427111"></polygon>
                                    <polygon id="Fill-14" fill="#FBB331" points="6.33311355 4.94273672 6.6825178 4.94273672 6.6825178 5.20092422 6.34929919 5.20092422"></polygon>
                                    <polygon id="Fill-15" fill="#FEFEFE" points="5.68649342 4.62830123 5.66406435 4.62667902 5.64155031 4.6234346 5.62073545 4.62027556 5.59983562 4.61703114 5.58063497 4.61378672 5.55973515 4.6105423 5.53883533 4.60738326 5.51640625 4.60413884 5.49397717 4.60089442 5.46831967 4.59927221 5.43943373 4.59765 5.40893358 4.59602779 5.37520501 4.59602779 5.33833296 4.59765 5.29661828 4.60089442 5.25006095 4.60413884 5.21794659 4.60900547 5.18744644 4.61378672 5.16017472 4.6234346 5.13613143 4.63316786 5.11370235 4.64443795 5.09280253 4.65733025 5.07674535 4.67346696 5.06230238 4.68798147 5.05270205 4.7057404 5.04463098 4.72341395 5.04148751 4.74279509 5.04148751 4.76217623 5.0462452 4.7830942 5.05270205 4.80409754 5.06553081 4.82501551 5.08158799 4.84601886 5.11370235 4.87658471 5.15218861 4.90083248 5.19713172 4.92175045 5.24521831 4.93950938 5.29661828 4.95564609 5.3495475 4.97340502 5.40247673 4.99270078 5.45379174 5.01370413 5.50196328 5.04111094 5.5469064 5.07492121 5.58700687 5.11530569 5.62073545 5.16525268 5.64639295 5.22655513 5.66245013 5.29912768 5.66882203 5.38612935 5.66245013 5.48773092 5.65115064 5.56354788 5.63194999 5.62963158 5.60629248 5.69093404 5.57417812 5.74412545 5.53730607 5.79091339 5.49550643 5.8312125 5.45064827 5.86673036 5.40086251 5.89729621 5.3495475 5.92145859 5.29661828 5.94246194 5.24198988 5.95859866 5.18591718 5.97149096 5.13128879 5.98122422 5.07835956 5.98600547 5.02543033 5.98924989 4.97564458 5.9908721 4.90665817 5.9908721 4.84251441 5.98924989 4.78635675 5.98924989 4.73342753 5.98762768 4.68525598 5.98600547 4.64192708 5.98276105 4.60344082 5.97960201 4.56648382 5.97473538 4.5328402 5.97149096 4.50234006 5.9650875 4.47183991 5.96022087 4.44456819 5.9521952 4.41729647 5.94570636 4.39163896 5.93605848 4.36598146 5.92632522 4.33870974 5.91667734 4.41083961 5.56030346 4.42536754 5.56354788 4.44295397 5.56832913 4.46546801 5.57481797 4.49273973 5.58130681 4.52162566 5.58771027 4.55365507 5.59419911 4.58899786 5.60222478 4.62748412 5.60871362 4.66758459 5.61511708 4.70929928 5.62160592 4.75262818 5.62647254 4.79757129 5.63125379 4.84412862 5.632876 4.89060099 5.63449821 4.93715832 5.63449821 4.98371565 5.632876 5.03027298 5.62322812 5.06714502 5.61033583 5.09603095 5.5925769 5.11846003 5.57003672 5.13451721 5.54741116 5.14734597 5.52162656 5.15541704 5.49584196 5.16178893 5.47167958 5.16501736 5.42489163 5.15057439 5.38459252 5.12330267 5.35231908 5.0832022 5.32491228 5.03503066 5.30074989 4.97887301 5.27650212 4.91634345 5.25396194 4.85372895 5.22817734 4.78958518 5.19914833 4.72858488 5.16525268 4.67242723 5.12333136 4.62111222 5.07338437 4.58092679 5.01208192 4.55204085 4.93950938 4.53759789 4.85242232 4.5392121 4.74919855 4.54728317 4.68635926 4.55849771 4.62667902 4.57455489 4.5718654 4.59375554 4.52029621 4.61949801 4.47188605 4.64838394 4.42996473 4.68202756 4.38966562 4.72221299 4.35423315 4.76868536 4.32358192 4.82000037 4.29771194 4.87777224 4.27354955 4.94200096 4.255876 5.01421579 4.24127612 5.09280253 4.23000603 5.17946033 4.22360257 5.27410424 4.22198036 5.33349032 4.22198036 5.38803376 4.22360257 5.43781952 4.22522478 5.48267767 4.22676161 5.52286311 4.23000603 5.55973515 4.23325045 5.59184951 4.23649487 5.62073545 4.23965391 5.64800717 4.24289833 5.67043624 4.24776496 5.69133607 4.25100937 5.71053672 4.25416842 5.7265939 4.25741283 5.74103686 4.25903504 5.75547983 4.26227946 5.76830858 4.26390167"></polygon>
                                    <polyline id="Stroke-16" stroke="#FEFEFE" stroke-width="0.5" points="5.68649342 4.62830123 5.68649342 4.62830123 5.66406435 4.62667902 5.64155031 4.6234346 5.62073545 4.62027556 5.59983562 4.61703114 5.58063497 4.61378672 5.55973515 4.6105423 5.53883533 4.60738326 5.51640625 4.60413884 5.49397717 4.60089442 5.46831967 4.59927221 5.43943373 4.59765 5.40893358 4.59602779 5.37520501 4.59602779 5.33833296 4.59765 5.29661828 4.60089442 5.25006095 4.60413884 5.21794659 4.60900547 5.18744644 4.61378672 5.16017472 4.6234346 5.13613143 4.63316786 5.11370235 4.64443795 5.09280253 4.65733025 5.07674535 4.67346696 5.06230238 4.68798147 5.05270205 4.7057404 5.04463098 4.72341395 5.04148751 4.74279509 5.04148751 4.76217623 5.0462452 4.7830942 5.05270205 4.80409754 5.06553081 4.82501551 5.08158799 4.84601886 5.11370235 4.87658471 5.15218861 4.90083248 5.19713172 4.92175045 5.24521831 4.93950938 5.29661828 4.95564609 5.3495475 4.97340502 5.40247673 4.99270078 5.45379174 5.01370413 5.50196328 5.04111094 5.5469064 5.07492121 5.58700687 5.11530569 5.62073545 5.16525268 5.64639295 5.22655513 5.66245013 5.29912768 5.66882203 5.38612935 5.66245013 5.48773092 5.65115064 5.56354788 5.63194999 5.62963158 5.60629248 5.69093404 5.57417812 5.74412545 5.53730607 5.79091339 5.49550643 5.8312125 5.45064827 5.86673036 5.40086251 5.89729621 5.3495475 5.92145859 5.29661828 5.94246194 5.24198988 5.95859866 5.18591718 5.97149096 5.13128879 5.98122422 5.07835956 5.98600547 5.02543033 5.98924989 4.97564458 5.9908721 4.90665817 5.9908721 4.84251441 5.98924989 4.78635675 5.98924989 4.73342753 5.98762768 4.68525598 5.98600547 4.64192708 5.98276105 4.60344082 5.97960201 4.56648382 5.97473538 4.5328402 5.97149096 4.50234006 5.9650875 4.47183991 5.96022087 4.44456819 5.9521952 4.41729647 5.94570636 4.39163896 5.93605848 4.36598146 5.92632522 4.33870974 5.91667734 4.41083961 5.56030346 4.42536754 5.56354788 4.44295397 5.56832913 4.46546801 5.57481797 4.49273973 5.58130681 4.52162566 5.58771027 4.55365507 5.59419911 4.58899786 5.60222478 4.62748412 5.60871362 4.66758459 5.61511708 4.70929928 5.62160592 4.75262818 5.62647254 4.79757129 5.63125379 4.84412862 5.632876 4.89060099 5.63449821 4.93715832 5.63449821 4.98371565 5.632876 5.03027298 5.62322812 5.06714502 5.61033583 5.09603095 5.5925769 5.11846003 5.57003672 5.13451721 5.54741116 5.14734597 5.52162656 5.15541704 5.49584196 5.16178893 5.47167958 5.16501736 5.42489163 5.15057439 5.38459252 5.12330267 5.35231908 5.0832022 5.32491228 5.03503066 5.30074989 4.97887301 5.27650212 4.91634345 5.25396194 4.85372895 5.22817734 4.78958518 5.19914833 4.72858488 5.16525268 4.67242723 5.12333136 4.62111222 5.07338437 4.58092679 5.01208192 4.55204085 4.93950938 4.53759789 4.85242232 4.5392121 4.74919855 4.54728317 4.68635926 4.55849771 4.62667902 4.57455489 4.5718654 4.59375554 4.52029621 4.61949801 4.47188605 4.64838394 4.42996473 4.68202756 4.38966562 4.72221299 4.35423315 4.76868536 4.32358192 4.82000037 4.29771194 4.87777224 4.27354955 4.94200096 4.255876 5.01421579 4.24127612 5.09280253 4.23000603 5.17946033 4.22360257 5.27410424 4.22198036 5.33349032 4.22198036 5.38803376 4.22360257 5.43781952 4.22522478 5.48267767 4.22676161 5.52286311 4.23000603 5.55973515 4.23325045 5.59184951 4.23649487 5.62073545 4.23965391 5.64800717 4.24289833 5.67043624 4.24776496 5.69133607 4.25100937 5.71053672 4.25416842 5.7265939 4.25741283 5.74103686 4.25903504 5.75547983 4.26227946 5.76830858 4.26390167 5.68649342 4.62830123"></polyline>
                                    <polygon id="Fill-17" fill="#FEFEFE" points="6.06675975 3.86559794 6.5112633 3.86559794 6.44542036 4.25586747 6.71337988 4.25586747 6.65560801 4.62026702 6.37320553 4.61215597 6.21917553 5.51197015 6.21756132 5.54424358 6.22563239 5.57156501 6.24168957 5.59256836 6.26250443 5.61032729 6.29139037 5.62159738 6.32350473 5.63124526 6.35876256 5.6377341 6.39733378 5.64097852 6.43259161 5.63935631 6.46470597 5.63611189 6.4935919 5.63124526 6.51924941 5.6248418 6.54014923 5.61835296 6.5545922 5.61357171 6.56419252 5.61032729 6.56742095 5.60870508 6.5112633 5.90864314 6.4999638 5.91666881 6.48874926 5.92315765 6.47753472 5.9295611 6.46632018 5.93604994 6.45510564 5.94083119 6.44227689 5.94569782 6.42774897 5.95056445 6.41339096 5.95543108 6.39733378 5.96021233 6.3812766 5.96345675 6.36199099 5.96670117 6.34279034 5.96986021 6.32189051 5.97310463 6.29784722 5.97634905 6.27218972 5.97959347 6.24483304 5.98275251 6.12291741 5.98275251 6.05877364 5.97797126 6.00261599 5.97148242 5.95121602 5.96183454 5.90797207 5.95056445 5.87101507 5.93604994 5.84051492 5.91991323 5.8132432 5.90053209 5.79234338 5.87961412 5.77637116 5.85698856 5.76515662 5.82958175 5.75708555 5.80217494 5.75224291 5.77152372 5.75071365 5.73771345 5.75071365 5.70219559 5.75547134 5.6651409 5.76031398 5.6248418"></polygon>
                                    <polyline id="Stroke-18" stroke="#FEFEFE" stroke-width="0.5" points="6.06675975 3.86559794 6.5112633 3.86559794 6.44542036 4.25586747 6.71337988 4.25586747 6.65560801 4.62026702 6.37320553 4.61215597 6.21917553 5.51197015 6.21756132 5.54424358 6.22563239 5.57156501 6.24168957 5.59256836 6.26250443 5.61032729 6.29139037 5.62159738 6.32350473 5.63124526 6.35876256 5.6377341 6.39733378 5.64097852 6.43259161 5.63935631 6.46470597 5.63611189 6.4935919 5.63124526 6.51924941 5.6248418 6.54014923 5.61835296 6.5545922 5.61357171 6.56419252 5.61032729 6.56742095 5.60870508 6.5112633 5.90864314 6.4999638 5.91666881 6.48874926 5.92315765 6.47753472 5.9295611 6.46632018 5.93604994 6.45510564 5.94083119 6.44227689 5.94569782 6.42774897 5.95056445 6.41339096 5.95543108 6.39733378 5.96021233 6.3812766 5.96345675 6.36199099 5.96670117 6.34279034 5.96986021 6.32189051 5.97310463 6.29784722 5.97634905 6.27218972 5.97959347 6.24483304 5.98275251 6.12291741 5.98275251 6.05877364 5.97797126 6.00261599 5.97148242 5.95121602 5.96183454 5.90797207 5.95056445 5.87101507 5.93604994 5.84051492 5.91991323 5.8132432 5.90053209 5.79234338 5.87961412 5.77637116 5.85698856 5.76515662 5.82958175 5.75708555 5.80217494 5.75224291 5.77152372 5.75071365 5.73771345 5.75071365 5.70219559 5.75547134 5.6651409 5.76031398 5.6248418 6.06675975 3.86559794"></polyline>
                                    <polygon id="Fill-19" fill="#FEFEFE" points="7.06799719 5.22815173 7.06315455 5.25555854 7.0616253 5.28458756 7.06476876 5.31523878 7.07122562 5.34589001 7.08244016 5.37654124 7.09526891 5.40548488 7.11294031 5.4361361 7.13214096 5.46354291 7.15465499 5.49094972 7.17869829 5.51519749 7.20444075 5.53935988 7.23324173 5.55874102 7.26212766 5.57641456 7.29424202 5.59092907 7.32635638 5.60219916 7.35847074 5.608688 7.40018543 5.61517684 7.4402859 5.61995809 7.48200059 5.62482472 7.52371528 5.62806914 7.56542996 5.62969135 7.60875887 5.62969135 7.65047355 5.62806914 7.69380245 5.62482472 7.73713135 5.61842126 7.7803753 5.61031021 7.82531841 5.60066233 7.86864731 5.58614782 7.91359043 5.5683889 7.96014775 5.54900776 8.00509087 5.52322316 8.05156324 5.49581635 7.98741947 5.89248934 7.96176197 5.90538164 7.93610446 5.91827394 7.910362 5.9280072 7.88631871 5.93765508 7.86227541 5.94568075 7.83661791 5.9537918 7.8109604 5.96019526 7.78360372 5.96506189 7.75471779 5.96992852 7.72268839 5.97308756 7.68895981 5.97633198 7.65208777 5.9795764 7.61037308 5.9811986 7.56704418 5.9811986 7.51725842 5.98282081 7.4643292 5.98282081 7.38574246 5.9811986 7.30545656 5.97308756 7.22525561 5.96181747 7.14505467 5.94252171 7.06638298 5.91827394 6.99102467 5.88762271 6.91880984 5.8473236 6.85143765 5.80053566 6.78882314 5.74572204 6.7342797 5.67963834 6.68772237 5.60544358 6.64923611 5.51997874 6.62196439 5.42486602 6.604293 5.31686099 6.59945035 5.1975005 6.60752142 5.06533309 6.61389332 5.01367852 6.62357861 4.95399827 6.63640736 4.89115898 6.65407875 4.82345307 6.67812204 4.75403956 6.70700798 4.68471144 6.74388002 4.6137611 6.78882314 4.54605519 6.84013815 4.48159369 6.90275266 4.42029124 6.97335328 4.36547762 7.05355423 4.31706747 7.14666888 4.27676836 7.25091312 4.24773934 7.36645686 4.22844358 7.49644356 4.22195474 7.55897311 4.22357695 7.62481605 4.22998041 7.69057402 4.24133588 7.756332 4.25738722 7.82056073 4.28163499 7.88309028 4.31066401 7.94086215 4.3493409 7.99387633 4.39450664 8.04196291 4.44932026 8.08206339 4.51386713 8.11417775 4.58797651 8.13660683 4.67344135 8.14943558 4.77017628 8.15104979 4.8798889 8.13983525 5.00240843 8.11579196 5.13782026 8.10772089 5.2361774 6.93801049 5.2361774 7.01183954 4.91856579 7.71461732 4.91856579 7.71784574 4.87826669 7.71623153 4.83950441 7.7130031 4.80407193 7.70663121 4.77179849 7.69541667 4.74114727 7.68411717 4.71374046 7.66814495 4.68957807 7.65208777 4.66703789 7.63280216 4.64765675 7.61198729 4.63152003 7.58785904 4.61700552 7.56381575 4.60411323 7.53815824 4.59446535 7.51250074 4.58797651 7.48514406 4.58319526 7.45634309 4.57995084 7.42584294 4.58157305 7.396957 4.5863543 7.36968528 4.59284314 7.34241356 4.60249102 7.31514184 4.61538331 7.29101359 4.62989782 7.2669703 4.64765675 7.24615544 4.66703789 7.22525561 4.68957807 7.20597001 4.71374046 7.18829861 4.73952506 7.1739406 4.76701724 7.15949764 4.79596088 7.1482831 4.82823432 7.13859781 4.86050776 7.13214096 4.89431802"></polygon>
                                    <polyline id="Stroke-20" stroke="#FEFEFE" stroke-width="0.5" points="7.06799719 5.22815173 7.06799719 5.22815173 7.06315455 5.25555854 7.0616253 5.28458756 7.06476876 5.31523878 7.07122562 5.34589001 7.08244016 5.37654124 7.09526891 5.40548488 7.11294031 5.4361361 7.13214096 5.46354291 7.15465499 5.49094972 7.17869829 5.51519749 7.20444075 5.53935988 7.23324173 5.55874102 7.26212766 5.57641456 7.29424202 5.59092907 7.32635638 5.60219916 7.35847074 5.608688 7.40018543 5.61517684 7.4402859 5.61995809 7.48200059 5.62482472 7.52371528 5.62806914 7.56542996 5.62969135 7.60875887 5.62969135 7.65047355 5.62806914 7.69380245 5.62482472 7.73713135 5.61842126 7.7803753 5.61031021 7.82531841 5.60066233 7.86864731 5.58614782 7.91359043 5.5683889 7.96014775 5.54900776 8.00509087 5.52322316 8.05156324 5.49581635 7.98741947 5.89248934 7.96176197 5.90538164 7.93610446 5.91827394 7.910362 5.9280072 7.88631871 5.93765508 7.86227541 5.94568075 7.83661791 5.9537918 7.8109604 5.96019526 7.78360372 5.96506189 7.75471779 5.96992852 7.72268839 5.97308756 7.68895981 5.97633198 7.65208777 5.9795764 7.61037308 5.9811986 7.56704418 5.9811986 7.51725842 5.98282081 7.4643292 5.98282081 7.38574246 5.9811986 7.30545656 5.97308756 7.22525561 5.96181747 7.14505467 5.94252171 7.06638298 5.91827394 6.99102467 5.88762271 6.91880984 5.8473236 6.85143765 5.80053566 6.78882314 5.74572204 6.7342797 5.67963834 6.68772237 5.60544358 6.64923611 5.51997874 6.62196439 5.42486602 6.604293 5.31686099 6.59945035 5.1975005 6.60752142 5.06533309 6.61389332 5.01367852 6.62357861 4.95399827 6.63640736 4.89115898 6.65407875 4.82345307 6.67812204 4.75403956 6.70700798 4.68471144 6.74388002 4.6137611 6.78882314 4.54605519 6.84013815 4.48159369 6.90275266 4.42029124 6.97335328 4.36547762 7.05355423 4.31706747 7.14666888 4.27676836 7.25091312 4.24773934 7.36645686 4.22844358 7.49644356 4.22195474 7.55897311 4.22357695 7.62481605 4.22998041 7.69057402 4.24133588 7.756332 4.25738722 7.82056073 4.28163499 7.88309028 4.31066401 7.94086215 4.3493409 7.99387633 4.39450664 8.04196291 4.44932026 8.08206339 4.51386713 8.11417775 4.58797651 8.13660683 4.67344135 8.14943558 4.77017628 8.15104979 4.8798889 8.13983525 5.00240843 8.11579196 5.13782026 8.10772089 5.2361774 6.93801049 5.2361774 7.01183954 4.91856579 7.71461732 4.91856579 7.71784574 4.87826669 7.71623153 4.83950441 7.7130031 4.80407193 7.70663121 4.77179849 7.69541667 4.74114727 7.68411717 4.71374046 7.66814495 4.68957807 7.65208777 4.66703789 7.63280216 4.64765675 7.61198729 4.63152003 7.58785904 4.61700552 7.56381575 4.60411323 7.53815824 4.59446535 7.51250074 4.58797651 7.48514406 4.58319526 7.45634309 4.57995084 7.42584294 4.58157305 7.396957 4.5863543 7.36968528 4.59284314 7.34241356 4.60249102 7.31514184 4.61538331 7.29101359 4.62989782 7.2669703 4.64765675 7.24615544 4.66703789 7.22525561 4.68957807 7.20597001 4.71374046 7.18829861 4.73952506 7.1739406 4.76701724 7.15949764 4.79596088 7.1482831 4.82823432 7.13859781 4.86050776 7.13214096 4.89431802 7.06799719 5.22815173"></polyline>
                                    <polygon id="Fill-21" fill="#FEFEFE" points="10.8948482 4.35256825 10.8740333 4.34129816 10.8531335 4.33165028 10.8307044 4.32029481 10.8065762 4.30902472 10.7825329 4.29937684 10.7552612 4.28972896 10.7279894 4.2799957 10.6991035 4.27034782 10.6686034 4.26223677 10.6381032 4.25583331 10.6044596 4.24934448 10.570731 4.24456323 10.533859 4.24131881 10.496902 4.23807439 10.4584157 4.23807439 10.4183152 4.23807439 10.3782148 4.23807439 10.3365001 4.24131881 10.2931712 4.24618544 10.2482281 4.2542111 10.2032849 4.2671034 10.1583418 4.28486233 10.1133987 4.30740251 10.0684556 4.33643153 10.0252117 4.37194939 9.98349697 4.4138707 9.9433965 4.4654399 9.90482528 4.52512015 9.86956745 4.59607048 9.83583887 4.67666869 9.80533873 4.76700017 9.77968122 4.87013856 9.7700809 4.9281966 9.76362404 4.98463242 9.76039561 5.04106825 9.76200983 5.09596724 9.76685247 5.15078086 9.77806701 5.20235006 9.79250997 5.25076021 9.81018137 5.29908499 9.83422466 5.34262852 9.86311059 5.38454983 9.89683917 5.4216899 9.93532543 5.45550017 9.97865433 5.48452919 10.0283551 5.50869157 10.0829835 5.52969492 10.1438989 5.54420943 10.1647987 5.54907606 10.188842 5.55385731 10.2177279 5.55710173 10.2498423 5.56034615 10.2851001 5.56350519 10.3219721 5.56350519 10.3621576 5.56350519 10.4022581 5.56034615 10.4439727 5.55547952 10.4856874 5.54745385 10.5257879 5.53618376 10.5658884 5.52320608 10.6059888 5.50553253 10.6429458 5.48452919 10.6766744 5.45874459 10.7087038 5.42971557 10.636489 5.86028421 10.6268887 5.86830988 10.6172883 5.87795776 10.6044596 5.88931323 10.5900166 5.8989611 10.5723452 5.9118534 10.5498312 5.92312349 10.5241737 5.93439358 10.4952878 5.94412684 10.4584157 5.95539693 10.416701 5.9634226 10.3685295 5.96991144 10.3123718 5.9763149 10.2498423 5.97955932 10.1776274 5.98118153 10.0958123 5.97955932 10.005926 5.97469269 9.932097 5.96666702 9.85826795 5.9505303 9.78452386 5.92636791 9.71069481 5.89409448 9.64009419 5.85541758 9.572722 5.80700742 9.50849328 5.7505716 9.44919215 5.6861101 9.39617797 5.61353756 9.35123486 5.53293934 9.3127486 5.44260787 9.28386266 5.34425073 9.26466201 5.2362457 9.25820516 5.12175184 9.26143358 4.99598789 9.27902002 4.86211289 9.29193373 4.79602919 9.3063767 4.73148231 9.32234892 4.66864302 9.3384061 4.60896278 9.3560775 4.55252695 9.37689236 4.49609113 9.39779218 4.44289972 9.42022126 4.39286735 9.44434951 4.34292037 9.4683928 4.29613242 9.49566452 4.25096669 9.52455046 4.20904537 9.55343639 4.16874626 9.58555075 4.13006936 9.61758016 4.09455151 9.65130873 4.06074124 9.68826574 4.0284678 9.72513778 3.99781657 9.76362404 3.97040977 9.80372451 3.94462517 9.84705341 3.9203774 9.89038231 3.89945943 9.93532543 3.88007829 9.98188276 3.86240474 10.0315836 3.84626802 10.0813693 3.83337573 10.1326843 3.82202026 10.1872278 3.81237238 10.2417712 3.80426133 10.2995431 3.79785787 10.3573149 3.79461345 10.4183152 3.79307662 10.4696302 3.79461345 10.519416 3.79785787 10.5675026 3.80263912 10.6156741 3.80912796 10.6606172 3.8156168 10.7039461 3.82526468 10.7456608 3.83337573 10.7841471 3.8430236 10.8210191 3.85267148 10.8531335 3.86240474 10.8836336 3.87205262 10.9092911 3.8817005 10.9317202 3.88981155 10.9510058 3.89621501 10.9654488 3.90270385 10.9750491 3.90594827"></polygon>
                                    <polyline id="Stroke-22" stroke="#FEFEFE" stroke-width="0.5" points="10.8948482 4.35256825 10.8948482 4.35256825 10.8740333 4.34129816 10.8531335 4.33165028 10.8307044 4.32029481 10.8065762 4.30902472 10.7825329 4.29937684 10.7552612 4.28972896 10.7279894 4.2799957 10.6991035 4.27034782 10.6686034 4.26223677 10.6381032 4.25583331 10.6044596 4.24934448 10.570731 4.24456323 10.533859 4.24131881 10.496902 4.23807439 10.4584157 4.23807439 10.4183152 4.23807439 10.3782148 4.23807439 10.3365001 4.24131881 10.2931712 4.24618544 10.2482281 4.2542111 10.2032849 4.2671034 10.1583418 4.28486233 10.1133987 4.30740251 10.0684556 4.33643153 10.0252117 4.37194939 9.98349697 4.4138707 9.9433965 4.4654399 9.90482528 4.52512015 9.86956745 4.59607048 9.83583887 4.67666869 9.80533873 4.76700017 9.77968122 4.87013856 9.7700809 4.9281966 9.76362404 4.98463242 9.76039561 5.04106825 9.76200983 5.09596724 9.76685247 5.15078086 9.77806701 5.20235006 9.79250997 5.25076021 9.81018137 5.29908499 9.83422466 5.34262852 9.86311059 5.38454983 9.89683917 5.4216899 9.93532543 5.45550017 9.97865433 5.48452919 10.0283551 5.50869157 10.0829835 5.52969492 10.1438989 5.54420943 10.1647987 5.54907606 10.188842 5.55385731 10.2177279 5.55710173 10.2498423 5.56034615 10.2851001 5.56350519 10.3219721 5.56350519 10.3621576 5.56350519 10.4022581 5.56034615 10.4439727 5.55547952 10.4856874 5.54745385 10.5257879 5.53618376 10.5658884 5.52320608 10.6059888 5.50553253 10.6429458 5.48452919 10.6766744 5.45874459 10.7087038 5.42971557 10.636489 5.86028421 10.6268887 5.86830988 10.6172883 5.87795776 10.6044596 5.88931323 10.5900166 5.8989611 10.5723452 5.9118534 10.5498312 5.92312349 10.5241737 5.93439358 10.4952878 5.94412684 10.4584157 5.95539693 10.416701 5.9634226 10.3685295 5.96991144 10.3123718 5.9763149 10.2498423 5.97955932 10.1776274 5.98118153 10.0958123 5.97955932 10.005926 5.97469269 9.932097 5.96666702 9.85826795 5.9505303 9.78452386 5.92636791 9.71069481 5.89409448 9.64009419 5.85541758 9.572722 5.80700742 9.50849328 5.7505716 9.44919215 5.6861101 9.39617797 5.61353756 9.35123486 5.53293934 9.3127486 5.44260787 9.28386266 5.34425073 9.26466201 5.2362457 9.25820516 5.12175184 9.26143358 4.99598789 9.27902002 4.86211289 9.29193373 4.79602919 9.3063767 4.73148231 9.32234892 4.66864302 9.3384061 4.60896278 9.3560775 4.55252695 9.37689236 4.49609113 9.39779218 4.44289972 9.42022126 4.39286735 9.44434951 4.34292037 9.4683928 4.29613242 9.49566452 4.25096669 9.52455046 4.20904537 9.55343639 4.16874626 9.58555075 4.13006936 9.61758016 4.09455151 9.65130873 4.06074124 9.68826574 4.0284678 9.72513778 3.99781657 9.76362404 3.97040977 9.80372451 3.94462517 9.84705341 3.9203774 9.89038231 3.89945943 9.93532543 3.88007829 9.98188276 3.86240474 10.0315836 3.84626802 10.0813693 3.83337573 10.1326843 3.82202026 10.1872278 3.81237238 10.2417712 3.80426133 10.2995431 3.79785787 10.3573149 3.79461345 10.4183152 3.79307662 10.4696302 3.79461345 10.519416 3.79785787 10.5675026 3.80263912 10.6156741 3.80912796 10.6606172 3.8156168 10.7039461 3.82526468 10.7456608 3.83337573 10.7841471 3.8430236 10.8210191 3.85267148 10.8531335 3.86240474 10.8836336 3.87205262 10.9092911 3.8817005 10.9317202 3.88981155 10.9510058 3.89621501 10.9654488 3.90270385 10.9750491 3.90594827 10.8948482 4.35256825"></polyline>
                                    <polygon id="Fill-23" fill="#FEFEFE" points="14.8452375 5.9827952 14.4008189 5.9827952 14.4329333 5.80383984 14.4329333 5.78770312 14.4071908 5.81989118 14.3799191 5.8489202 14.3526474 5.87479018 14.3237615 5.89733036 14.2948755 5.91833371 14.2659896 5.93600725 14.2371036 5.95052176 14.2066035 5.96503627 14.1761034 5.97639174 14.1456882 5.98441741 14.115188 5.99244308 14.0830737 5.99730971 14.0509593 6.00217634 14.0204591 6.00533538 13.9884297 6.00695759 13.9563154 6.00695759 13.872886 6.00055413 13.7959135 5.9827952 13.7252279 5.95538839 13.6610841 5.91833371 13.6033123 5.87154576 13.5519973 5.81673214 13.5070542 5.7570519 13.4685679 5.68934598 13.4364535 5.61677344 13.410796 5.54095647 13.3931246 5.46198047 13.3802959 5.37976004 13.3754532 5.29745424 13.3770674 5.21361161 13.3851385 5.13139118 13.3995815 5.04917076 13.4236248 4.95405804 13.4525107 4.86372656 13.4862393 4.78150614 13.5262548 4.70406696 13.5680544 4.63149442 13.616141 4.56703292 13.6659268 4.50897489 13.718856 4.45578348 13.7750137 4.40899554 13.8343997 4.36869643 13.8954 4.33326395 13.9563154 4.30577176 14.0204591 4.28323158 14.0846879 4.26871708 14.1488316 4.2590692 14.2146746 4.25582478 14.2611469 4.25744699 14.3060901 4.26231362 14.3478047 4.27033929 14.386376 4.28160937 14.423248 4.29450167 14.4553624 4.30901618 14.4874767 4.32677511 14.5162777 4.34453404 14.5420202 4.3638298 14.5660635 4.38483315 14.5868783 4.40575112 14.6061639 4.42675446 14.6222211 4.44767243 14.6366641 4.46867578 14.6494928 4.48805692 14.6590932 4.50735268 14.7714085 3.87366629 15.2078409 3.87366629"></polygon>
                                    <polyline id="Stroke-24" stroke="#FEFEFE" stroke-width="0.5" points="14.8452375 5.9827952 14.4008189 5.9827952 14.4329333 5.80383984 14.4329333 5.78770312 14.4071908 5.81989118 14.3799191 5.8489202 14.3526474 5.87479018 14.3237615 5.89733036 14.2948755 5.91833371 14.2659896 5.93600725 14.2371036 5.95052176 14.2066035 5.96503627 14.1761034 5.97639174 14.1456882 5.98441741 14.115188 5.99244308 14.0830737 5.99730971 14.0509593 6.00217634 14.0204591 6.00533538 13.9884297 6.00695759 13.9563154 6.00695759 13.872886 6.00055413 13.7959135 5.9827952 13.7252279 5.95538839 13.6610841 5.91833371 13.6033123 5.87154576 13.5519973 5.81673214 13.5070542 5.7570519 13.4685679 5.68934598 13.4364535 5.61677344 13.410796 5.54095647 13.3931246 5.46198047 13.3802959 5.37976004 13.3754532 5.29745424 13.3770674 5.21361161 13.3851385 5.13139118 13.3995815 5.04917076 13.4236248 4.95405804 13.4525107 4.86372656 13.4862393 4.78150614 13.5262548 4.70406696 13.5680544 4.63149442 13.616141 4.56703292 13.6659268 4.50897489 13.718856 4.45578348 13.7750137 4.40899554 13.8343997 4.36869643 13.8954 4.33326395 13.9563154 4.30577176 14.0204591 4.28323158 14.0846879 4.26871708 14.1488316 4.2590692 14.2146746 4.25582478 14.2611469 4.25744699 14.3060901 4.26231362 14.3478047 4.27033929 14.386376 4.28160937 14.423248 4.29450167 14.4553624 4.30901618 14.4874767 4.32677511 14.5162777 4.34453404 14.5420202 4.3638298 14.5660635 4.38483315 14.5868783 4.40575112 14.6061639 4.42675446 14.6222211 4.44767243 14.6366641 4.46867578 14.6494928 4.48805692 14.6590932 4.50735268 14.7714085 3.87366629 15.2078409 3.87366629 14.8452375 5.9827952"></polyline>
                                    <polygon id="Fill-25" fill="#FBB331" points="14.1183995 5.59258544 14.1633426 5.58934102 14.2050573 5.57969314 14.2435435 5.56833767 14.2804156 5.55066412 14.3141441 5.53128298 14.3462585 5.50712059 14.3766737 5.47971378 14.4040304 5.45068477 14.4280737 5.41841133 14.4505027 5.38297885 14.4714026 5.34583878 14.488989 5.30716189 14.5051311 5.26686278 14.5179599 5.22494146 14.5291744 5.18139794 14.5371605 5.13785441 14.5452316 5.09268867 14.5499893 5.04590073 14.5499893 5.0023572 14.5483751 4.95727684 14.5436174 4.91535552 14.5371605 4.87505642 14.525946 4.83629414 14.5131172 4.79923945 14.4970601 4.76696602 14.4777745 4.73631479 14.4569596 4.71053019 14.4329163 4.68799001 14.4056446 4.66860887 14.3766737 4.65571657 14.3462585 4.6476909 14.3125299 4.64444648 14.269201 4.6476909 14.2291005 4.65409436 14.1922285 4.66698666 14.1552715 4.68312338 14.1231571 4.70412673 14.0911277 4.72991133 14.063856 4.75731814 14.0365843 4.78796936 14.012456 4.82340184 13.990027 4.86045653 13.9691271 4.89921881 13.9515407 4.94114012 13.9354835 4.98468365 13.9226548 5.02822718 13.909826 5.07492974 13.9001407 5.12171769 13.8921546 5.19266802 13.8953831 5.2701072 13.9065976 5.3490832 13.9274125 5.42490017 13.9595268 5.49098387 14.0012415 5.54417528 14.0542557 5.57969314"></polygon>
                                    <polygon id="Fill-26" fill="#FEFEFE" points="4.2648637 5.62482472 4.20071993 5.98282081 3.79631686 5.98282081 3.8075314 5.91665173 3.81560247 5.85705686 3.82197436 5.81189113 3.82843122 5.78764336 3.80600214 5.81351334 3.78025968 5.83929794 3.74984449 5.86346032 3.71611591 5.88608588 3.67762965 5.90862606 3.63744422 5.9280072 3.59581449 5.94730296 3.55248559 5.96343968 3.50592827 5.97795419 3.45937094 5.98922427 3.41281361 5.99887215 3.36472702 6.00536099 3.3181697 6.00860541 3.27161237 6.01022762 3.22675421 6.00536099 3.18342531 5.99887215 3.12726766 5.98444302 3.07586769 5.96830631 3.03100953 5.94730296 2.9908241 5.92314057 2.95556627 5.89735597 2.92345191 5.86832695 2.8977944 5.83767573 2.87528036 5.80540229 2.85607971 5.77159202 2.84002253 5.73607416 2.82719378 5.70064169 2.81759345 5.66512383 2.8111366 5.62806914 2.80637892 5.59092907 2.80315049 5.5554966 2.80315049 5.51997874 2.80790817 5.45713945 2.81759345 5.39745921 2.83356568 5.34102338 2.8544655 5.28620977 2.88012301 5.23464057 2.90900894 5.18785262 2.94273751 5.14268689 2.98122377 5.10238778 3.02132425 5.06533309 3.06626736 5.03143744 3.11282469 5.00078622 3.16091127 4.97500162 3.21231124 4.95237606 3.26524047 4.93470251 3.31978391 4.920188 3.37594156 4.91054012 3.37916999 4.91054012 3.3871561 4.90891791 3.3984556 4.9072957 3.41612699 4.90567349 3.43532764 4.90242907 3.45775672 4.90080686 3.48180001 4.89756244 3.50915669 4.89431802 3.53642841 4.89115898 3.56370013 4.88791456 3.59258607 4.88629235 3.61824357 4.88304794 3.64390108 4.88142573 3.66794437 4.8798889 3.69045841 4.87826669 3.7081298 4.87826669 3.74500185 4.87826669 3.78348811 4.8798889 3.8188309 4.88142573 3.85408873 4.88142573 3.88297466 4.88304794 3.9054887 4.88467015 3.92146092 4.88629235 3.92630356 4.88629235 3.92953199 4.87502227 3.93913231 4.84599325 3.94720338 4.8120976 3.95043181 4.78144637 3.94397496 4.7460139 3.92953199 4.71374046 3.91024638 4.68471144 3.88458887 4.66054905 3.85408873 4.63963108 3.82036015 4.62511657 3.78187389 4.61538331 3.74015921 4.61222427 3.69530105 4.61060206 3.64712951 4.60897985 3.59734375 4.60897985 3.54602874 4.61060206 3.49309951 4.61384648 3.44169954 4.61862773 3.39038453 4.62349436 3.34068373 4.62989782 3.29251219 4.63638666 3.24595486 4.64441233 3.20424017 4.65252338 3.16575392 4.66054905 3.13041113 4.67028231 3.10161015 4.67993019 3.07909611 4.69120028 3.06142472 4.70084816 3.17535424 4.31228622 3.21069703 4.29777171 3.24595486 4.28487941 3.28444112 4.27352394 3.32301234 4.26549827 3.3614986 4.25738722 3.40321328 4.25098376 3.44492797 4.24449492 3.48825687 4.24133588 3.53319999 4.23809146 3.57967236 4.23646925 3.6278439 4.23484704 3.67762965 4.23484704 3.72894467 4.23484704 3.78187389 4.23484704 3.83803155 4.23646925 3.8941892 4.23809146 3.93913231 4.24133588 3.98730386 4.24936155 4.03700465 4.26063164 4.08840462 4.27514615 4.13810542 4.29452729 4.18627697 4.31706747 4.23436355 4.34447427 4.27930666 4.3751255 4.31940714 4.41064336 4.35474993 4.44932026 4.38677933 4.49286378 4.41090758 4.54118856 4.4268798 4.59284314 4.43656509 4.64765675 4.43656509 4.70895921 4.4268798 4.7734207"></polygon>
                                    <polyline id="Stroke-27" stroke="#FEFEFE" stroke-width="0.5" points="4.2648637 5.62482472 4.20071993 5.98282081 3.79631686 5.98282081 3.8075314 5.91665173 3.81560247 5.85705686 3.82197436 5.81189113 3.82843122 5.78764336 3.80600214 5.81351334 3.78025968 5.83929794 3.74984449 5.86346032 3.71611591 5.88608588 3.67762965 5.90862606 3.63744422 5.9280072 3.59581449 5.94730296 3.55248559 5.96343968 3.50592827 5.97795419 3.45937094 5.98922427 3.41281361 5.99887215 3.36472702 6.00536099 3.3181697 6.00860541 3.27161237 6.01022762 3.22675421 6.00536099 3.18342531 5.99887215 3.12726766 5.98444302 3.07586769 5.96830631 3.03100953 5.94730296 2.9908241 5.92314057 2.95556627 5.89735597 2.92345191 5.86832695 2.8977944 5.83767573 2.87528036 5.80540229 2.85607971 5.77159202 2.84002253 5.73607416 2.82719378 5.70064169 2.81759345 5.66512383 2.8111366 5.62806914 2.80637892 5.59092907 2.80315049 5.5554966 2.80315049 5.51997874 2.80790817 5.45713945 2.81759345 5.39745921 2.83356568 5.34102338 2.8544655 5.28620977 2.88012301 5.23464057 2.90900894 5.18785262 2.94273751 5.14268689 2.98122377 5.10238778 3.02132425 5.06533309 3.06626736 5.03143744 3.11282469 5.00078622 3.16091127 4.97500162 3.21231124 4.95237606 3.26524047 4.93470251 3.31978391 4.920188 3.37594156 4.91054012 3.37916999 4.91054012 3.3871561 4.90891791 3.3984556 4.9072957 3.41612699 4.90567349 3.43532764 4.90242907 3.45775672 4.90080686 3.48180001 4.89756244 3.50915669 4.89431802 3.53642841 4.89115898 3.56370013 4.88791456 3.59258607 4.88629235 3.61824357 4.88304794 3.64390108 4.88142573 3.66794437 4.8798889 3.69045841 4.87826669 3.7081298 4.87826669 3.74500185 4.87826669 3.78348811 4.8798889 3.8188309 4.88142573 3.85408873 4.88142573 3.88297466 4.88304794 3.9054887 4.88467015 3.92146092 4.88629235 3.92630356 4.88629235 3.92953199 4.87502227 3.93913231 4.84599325 3.94720338 4.8120976 3.95043181 4.78144637 3.94397496 4.7460139 3.92953199 4.71374046 3.91024638 4.68471144 3.88458887 4.66054905 3.85408873 4.63963108 3.82036015 4.62511657 3.78187389 4.61538331 3.74015921 4.61222427 3.69530105 4.61060206 3.64712951 4.60897985 3.59734375 4.60897985 3.54602874 4.61060206 3.49309951 4.61384648 3.44169954 4.61862773 3.39038453 4.62349436 3.34068373 4.62989782 3.29251219 4.63638666 3.24595486 4.64441233 3.20424017 4.65252338 3.16575392 4.66054905 3.13041113 4.67028231 3.10161015 4.67993019 3.07909611 4.69120028 3.06142472 4.70084816 3.17535424 4.31228622 3.21069703 4.29777171 3.24595486 4.28487941 3.28444112 4.27352394 3.32301234 4.26549827 3.3614986 4.25738722 3.40321328 4.25098376 3.44492797 4.24449492 3.48825687 4.24133588 3.53319999 4.23809146 3.57967236 4.23646925 3.6278439 4.23484704 3.67762965 4.23484704 3.72894467 4.23484704 3.78187389 4.23484704 3.83803155 4.23646925 3.8941892 4.23809146 3.93913231 4.24133588 3.98730386 4.24936155 4.03700465 4.26063164 4.08840462 4.27514615 4.13810542 4.29452729 4.18627697 4.31706747 4.23436355 4.34447427 4.27930666 4.3751255 4.31940714 4.41064336 4.35474993 4.44932026 4.38677933 4.49286378 4.41090758 4.54118856 4.4268798 4.59284314 4.43656509 4.64765675 4.43656509 4.70895921 4.4268798 4.7734207 4.2648637 5.62482472"></polyline>
                                    <polygon id="Fill-28" fill="#EC1C2D" points="3.878166 5.20363075 3.87655179 5.19561512 3.87017989 5.18768387 3.86049461 5.1828745 3.84443743 5.17975262 3.82685099 5.17654637 3.80595117 5.17494325 3.78190788 5.17494325 3.75786458 5.17494325 3.73212212 5.17654637 3.7048504 5.17975262 3.67919289 5.1828745 3.65353539 5.18608075 3.6294921 5.189287 3.60697806 5.19409637 3.58777741 5.19882137 3.57010601 5.20363075 3.55889147 5.206837 3.54597776 5.211562 3.52839133 5.2179745 3.51071993 5.22590575 3.48982011 5.2355245 3.46900525 5.246662 3.44657617 5.2577995 3.42567634 5.27054012 3.40324727 5.286487 3.38234744 5.30243387 3.36314679 5.32150262 3.3454754 5.34065575 3.32941822 5.361412 3.31820368 5.383687 3.3085184 5.40916825 3.30376071 5.4346495 3.3021465 5.48890262 3.31013261 5.53193387 3.32618979 5.56374325 3.34708961 5.58770575 3.3711329 5.60356825 3.39840462 5.613187 3.42406213 5.617912 3.4498046 5.61951512 3.49789118 5.617912 3.54122008 5.613187 3.58293477 5.6067745 3.61980681 5.59715575 3.65192117 5.58610262 3.68242132 5.5716745 3.70969304 5.55741512 3.73373633 5.53986512 3.75463616 5.52391825 3.77383681 5.50476512 3.78989399 5.4872995 3.80272274 5.46814637 3.81402224 5.44899325 3.82362256 5.4299245 3.83160867 5.4123745 3.83645132 5.3948245 3.84928007 5.34867137 3.86049461 5.29602137 3.87017989 5.24505887"></polygon>
                                    <polygon id="Fill-29" fill="#FEFEFE" points="0.888896646 5.9827952 0.45246417 5.9827952 0.816681811 3.86564063 1.57561724 3.86564063 1.64783208 5.1217433 2.17253657 3.86564063 2.96520058 3.86564063 2.59291186 5.9827952 2.15647939 5.9827952 2.43250997 4.40096987 2.41483858 4.40096987 1.7617616 5.9827952 1.26917147 5.9827952 1.26594304 5.9167115 1.2547285 5.74091518 1.24028553 5.49100949 1.22422835 5.20396373 1.20817117 4.91529576 1.19372821 4.66214565 1.18251367 4.47832366 1.17928524 4.40096987 1.17452756 4.40096987 1.16484227 4.40096987 1.15524195 4.40096987"></polygon>
                                    <polyline id="Stroke-30" stroke="#FEFEFE" stroke-width="0.5" points="0.888896646 5.9827952 0.45246417 5.9827952 0.816681811 3.86564063 1.57561724 3.86564063 1.64783208 5.1217433 2.17253657 3.86564063 2.96520058 3.86564063 2.59291186 5.9827952 2.15647939 5.9827952 2.43250997 4.40096987 2.41483858 4.40096987 1.7617616 5.9827952 1.26917147 5.9827952 1.26594304 5.9167115 1.2547285 5.74091518 1.24028553 5.49100949 1.22422835 5.20396373 1.20817117 4.91529576 1.19372821 4.66214565 1.18251367 4.47832366 1.17928524 4.40096987 1.17452756 4.40096987 1.16484227 4.40096987 1.15524195 4.40096987 0.888896646 5.9827952"></polyline>
                                    <polygon id="Fill-31" fill="#FEFEFE" points="12.2282654 5.62482472 12.1625074 5.98282081 11.7597185 5.98282081 11.762947 5.91665173 11.7645612 5.85867907 11.7645612 5.81513555 11.7677046 5.79575441 11.7468898 5.8199168 11.7227615 5.84407919 11.6939605 5.86670474 11.6618462 5.88924492 11.6281176 5.91024827 11.5896314 5.92954403 11.5495309 5.94892517 11.5094304 5.96506189 11.4661015 5.97795419 11.4211584 5.99084648 11.3762153 5.99887215 11.3312722 6.00536099 11.2847148 6.00860541 11.2398567 6.01022762 11.1965278 6.00536099 11.1531989 5.99887215 11.095427 5.98444302 11.044027 5.96830631 10.9991689 5.94730296 10.9574542 5.92314057 10.9221114 5.89735597 10.8916113 5.86832695 10.8659538 5.83767573 10.8435247 5.80540229 10.8242391 5.77159202 10.8097961 5.73607416 10.7969673 5.70064169 10.7889812 5.66512383 10.7825244 5.62806914 10.7776817 5.59092907 10.7745383 5.5554966 10.7745383 5.51997874 10.7776817 5.45713945 10.787367 5.39745921 10.80181 5.34102338 10.8226249 5.28620977 10.8466681 5.23464057 10.8771683 5.18785262 10.9108969 5.14268689 10.9477689 5.10238778 10.9894836 5.06533309 11.0328125 5.03143744 11.0793698 5.00078622 11.1291556 4.97500162 11.1788564 4.95237606 11.2317856 4.93470251 11.2847148 4.920188 11.3393432 4.91054012 11.3424867 4.91054012 11.3505578 4.90891791 11.3617723 4.9072957 11.3778295 4.90567349 11.3987293 4.90242907 11.4211584 4.90080686 11.4452017 4.89756244 11.4708592 4.89431802 11.4982159 4.89115898 11.5270168 4.88791456 11.5543735 4.88629235 11.5815603 4.88304794 11.6073027 4.88142573 11.6297318 4.8798889 11.6522459 4.87826669 11.6698323 4.87826669 11.7084035 4.87826669 11.7468898 4.8798889 11.7837618 4.88142573 11.8191046 4.88142573 11.8496048 4.88304794 11.8752623 4.88467015 11.8897052 4.88629235 11.8960771 4.88629235 11.8993056 4.87502227 11.9041482 4.84599325 11.9089059 4.8120976 11.9121343 4.78144637 11.9057624 4.7460139 11.8929337 4.71374046 11.8720338 4.68471144 11.8479905 4.66054905 11.8191046 4.63963108 11.785376 4.62511657 11.7501182 4.61538331 11.711547 4.61222427 11.6666039 4.61060206 11.6185173 4.60897985 11.5687315 4.60897985 11.5174165 4.61060206 11.4644873 4.61384648 11.4130873 4.61862773 11.3617723 4.62349436 11.3120715 4.62989782 11.2639 4.63638666 11.2173426 4.64441233 11.175628 4.65252338 11.1371417 4.66054905 11.1017989 4.67028231 11.0729979 4.67993019 11.0504839 4.69120028 11.0328125 4.70084816 11.1451278 4.31228622 11.1804706 4.29777171 11.2173426 4.28487941 11.2542996 4.27352394 11.2927859 4.26549827 11.3328864 4.25738722 11.3729868 4.25098376 11.4147015 4.24449492 11.4580304 4.24133588 11.5029736 4.23809146 11.5495309 4.23646925 11.5960033 4.23484704 11.645789 4.23484704 11.6955748 4.23484704 11.7468898 4.23484704 11.8014332 4.23646925 11.8559767 4.23809146 11.9009198 4.24133588 11.9490913 4.24936155 11.9987921 4.26063164 12.0501071 4.27514615 12.0998929 4.29452729 12.1495937 4.31706747 12.1977652 4.34447427 12.2427083 4.3751255 12.2828088 4.41064336 12.3196809 4.44932026 12.3517952 4.49286378 12.3758385 4.54118856 12.3935099 4.59284314 12.4047244 4.64765675 12.4047244 4.70895921 12.3967383 4.7734207"></polygon>
                                    <polygon id="Fill-32" fill="#FEFEFE" points="12.1641682 5.98973605 12.1754569 5.98020167 12.2527796 5.6264173 12.2302022 5.62321105 12.1527796 5.97699542 12.1641682 5.96737667 12.1641682 5.98973605 12.1735588 5.98813292 12.1754569 5.98020167"></polygon>
                                    <path d="M11.7598344,5.97146535 L11.7695115,5.98466535 L11.7501573,5.98466535 L11.7598344,5.99806535 L12.1657599,5.99806535 L12.1657599,5.97146535 L11.7598344,5.97146535 Z M11.7484445,5.99600285 L11.7617445,5.99600285 L11.7504445,5.98260285 L11.7484445,5.99600285 Z" id="Fill-33" fill="#FEFEFE"></path>
                                    <path d="M11.7611655,5.79053996 L11.7783655,5.80443996 L11.7614655,5.78923996 L11.7611655,5.79053996 Z M11.7613953,5.79063996 L11.7613953,5.79053996 L11.7597953,5.78923996 L11.7613953,5.79063996 Z M11.7558182,5.81480558 L11.7538182,5.85783683 L11.7538182,5.91521183 L11.7501182,5.98051808 L11.7727182,5.98051808 L11.7765182,5.91521183 L11.7802182,5.85783683 L11.7783182,5.81480558 L11.7783182,5.80206496 L11.7630182,5.79042121 L11.7558182,5.81480558 Z" id="Fill-34" fill="#FEFEFE"></path>
                                    <polygon id="Fill-35" fill="#FEFEFE" points="11.1515762 6.00601641 11.1515762 6.00601641 11.1965193 6.01242891 11.2398482 6.01715391 11.2847913 6.01555078 11.3312637 6.01242891 11.377821 6.00601641 11.4227641 5.99808516 11.4677072 5.98526016 11.5125654 5.97251953 11.5527508 5.95665703 11.5944655 5.93750391 11.6329518 5.91835078 11.6665954 5.89607578 11.700324 5.87371641 11.7292099 5.85144141 11.7548674 5.82596016 11.7757672 5.80208203 11.75971 5.78925703 11.7388952 5.81321953 11.7163811 5.83549453 11.6874952 5.85785391 11.6569951 5.88012891 11.6233514 5.89928203 11.5847802 5.91835078 11.546294 5.93750391 11.5061935 5.95345078 11.4644788 5.96619141 11.4195357 5.97893203 11.3745926 5.98686328 11.3312637 5.99327578 11.2847913 5.99648203 11.2398482 5.99808516 11.1965193 5.99327578 11.1548046 5.98686328"></polygon>
                                    <polygon id="Fill-36" fill="#FEFEFE" points="10.7632897 5.52000435 10.7632897 5.52000435 10.7649169 5.55510435 10.7681711 5.59011998 10.7729669 5.62834185 10.7794754 5.66504498 10.7875254 5.7000606 10.8004568 5.73676373 10.8150153 5.77338248 10.8360823 5.80687935 10.8586908 5.84029185 10.8845536 5.87058248 10.9169249 5.9008731 10.9541775 5.92635435 10.9962259 5.9518356 11.0430701 5.97259185 11.0965084 5.98853873 11.1546568 6.00288248 11.157911 5.98372935 11.099677 5.9693856 11.0495786 5.95343873 11.005903 5.93268248 10.9638546 5.91040748 10.9298562 5.88492623 10.9007392 5.85784185 10.8748764 5.82755123 10.8522679 5.7972606 10.8344552 5.7638481 10.8198967 5.73035123 10.8069653 5.69685435 10.7989153 5.66183873 10.7924068 5.62521998 10.7875254 5.59011998 10.7842711 5.55510435 10.7858983 5.52000435"></polygon>
                                    <polygon id="Fill-37" fill="#FEFEFE" points="11.3393177 4.90082394 11.3393177 4.90082394 11.2831601 4.91047182 11.2286167 4.92498633 11.1756874 4.94274526 11.1242875 4.96528544 11.0745867 4.99115541 11.0264151 5.02334347 10.9830862 5.05723912 10.9413715 5.09591602 10.9028853 5.13621512 10.8691567 5.18138086 10.8371273 5.22979102 10.812999 5.28298242 10.7921842 5.33779604 10.7777412 5.39585407 10.7681409 5.45715653 10.7632982 5.51999581 10.7857273 5.51999581 10.7873415 5.45715653 10.7969419 5.39909849 10.8113848 5.34428488 10.8322846 5.28947126 10.8563279 5.2394389 10.8852139 5.19427316 10.9189424 5.14910742 10.9542003 5.10880831 10.995915 5.07337584 11.0392439 5.03948019 11.084187 5.01045117 11.1338878 4.98466657 11.1820593 4.9621264 11.2349885 4.94436747 11.2863885 4.92985296 11.3393177 4.9201197"></polygon>
                                    <polygon id="Fill-38" fill="#FEFEFE" points="11.6547406 4.86694537 11.6320464 4.87074537 11.6094379 4.87264537 11.5834895 4.87454537 11.5560853 4.87824537 11.5285954 4.88014537 11.4993927 4.88394537 11.4719028 4.88774537 11.4460401 4.89154537 11.4218044 4.89534537 11.3991959 4.89714537 11.3781289 4.90094537 11.3619432 4.90284537 11.3490119 4.90474537 11.3425034 4.90664537 11.3393347 4.90664537 11.3393347 4.92924537 11.3425034 4.92924537 11.3521805 4.92744537 11.3619432 4.92554537 11.3781289 4.92364537 11.3991959 4.91984537 11.4218044 4.91794537 11.4460401 4.91424537 11.4719028 4.91044537 11.4993927 4.90664537 11.5285954 4.90284537 11.5560853 4.90094537 11.5834895 4.89714537 11.6094379 4.89534537 11.6320464 4.89344537 11.6547406 4.89344537 11.6724677 4.89344537 11.6724677 4.86694537"></polygon>
                                    <path d="M11.6698238,4.86694537 L11.6698238,4.89344537 L11.7087036,4.89344537 L11.7474977,4.89344537 L11.7846648,4.89714537 L11.8202903,4.89714537 L11.8510344,4.89714537 L11.8768116,4.89904537 L11.8914557,4.90094537 L11.8978786,4.90094537 L11.9075557,4.89154537 L11.8882015,4.88774537 L11.8978786,4.87824537 L11.8914557,4.87824537 L11.8768116,4.87644537 L11.8510344,4.87454537 L11.8202903,4.87074537 L11.7846648,4.87074537 L11.7474977,4.87074537 L11.7087036,4.86694537 L11.6698238,4.86694537 Z M11.8978786,4.89710162 L11.9073786,4.89900162 L11.9091786,4.88770162 L11.8978786,4.89710162 Z" id="Fill-39" fill="#FEFEFE"></path>
                                    <polygon id="Fill-40" fill="#FEFEFE" points="11.9280258 4.7814976 11.9053258 4.7814976 11.9034258 4.7814976 11.9015258 4.81178823 11.8959258 4.8435976 11.8903258 4.8722851 11.8864258 4.88350698 11.9091258 4.88671323 11.9129258 4.87549135 11.9185258 4.84680385 11.9242258 4.81178823 11.9299258 4.7814976"></polygon>
                                    <polygon id="Fill-41" fill="#FEFEFE" points="11.711564 4.62161752 11.711564 4.62322065 11.748731 4.62482377 11.7827294 4.63435815 11.8151007 4.6487019 11.8425906 4.66785502 11.8651991 4.69013002 11.884639 4.7172144 11.8975704 4.7459019 11.9039932 4.7793144 11.9234331 4.7793144 11.9169246 4.74269565 11.9039932 4.70768002 11.8813847 4.6773894 11.855522 4.65190815 11.8247778 4.62954877 11.7892379 4.61520502 11.7519853 4.60567065 11.711564 4.60094565 11.711564 4.6024644"></polygon>
                                    <polygon id="Fill-42" fill="#FEFEFE" points="11.0232122 4.69807333 11.0392694 4.7076077 11.0553265 4.69967645 11.0761414 4.68853895 11.1034131 4.6789202 11.1387559 4.66938583 11.1772422 4.6613702 11.2189569 4.65343895 11.2655142 4.6455077 11.3120715 4.6390952 11.3617723 4.63276708 11.4130873 4.6279577 11.4644873 4.62314833 11.5174165 4.61994208 11.5687315 4.61994208 11.6185173 4.61994208 11.6666039 4.61994208 11.711547 4.6215452 11.711547 4.60247645 11.6666039 4.60087333 11.6185173 4.59766708 11.5687315 4.59766708 11.5174165 4.60087333 11.4644873 4.60407958 11.4130873 4.60880458 11.3617723 4.61361395 11.3120715 4.61994208 11.2622858 4.62635458 11.2157284 4.6343702 11.1740137 4.64230145 11.1355275 4.6502327 11.1002697 4.65985145 11.0697695 4.66938583 11.0456413 4.68052333 11.0264406 4.69166083 11.0424978 4.70127958"></polygon>
                                    <polygon id="Fill-43" fill="#FEFEFE" points="11.142909 4.30259565 11.1364005 4.3105269 11.0231867 4.6946019 11.0426266 4.69780815 11.1558404 4.31373315 11.1493319 4.3216644 11.142909 4.30259565 11.1380276 4.30419877 11.1364005 4.3105269"></polygon>
                                    <polygon id="Fill-44" fill="#FEFEFE" points="11.8559682 4.22849072 11.8559682 4.22849072 11.8014247 4.22519211 11.7468813 4.2235428 11.6955663 4.2235428 11.6457805 4.2235428 11.5960797 4.2235428 11.5495224 4.22684141 11.5029651 4.22849072 11.4580219 4.23178933 11.414693 4.23500113 11.3713641 4.24159836 11.3312637 4.24819558 11.2911632 4.2563553 11.2526769 4.26460183 11.2141907 4.27606016 11.1772337 4.2891678 11.1419758 4.30392475 11.1483477 4.3235428 11.1836905 4.30887266 11.2205626 4.29567822 11.2559054 4.28421988 11.2943916 4.27606016 11.3344921 4.26781363 11.3745926 4.26130322 11.414693 4.254706 11.4580219 4.25140738 11.5029651 4.24819558 11.5495224 4.24654627 11.5960797 4.24654627 11.6457805 4.24654627 11.6955663 4.24654627 11.7468813 4.24654627 11.8014247 4.24819558 11.8559682 4.24819558"></polygon>
                                    <polygon id="Fill-45" fill="#FEFEFE" points="12.4063302 4.77504291 12.4063302 4.77504291 12.4143163 4.70895921 12.4143163 4.64765675 12.4031017 4.59122093 12.3855153 4.53802952 12.3598578 4.48799715 12.3277434 4.44283142 12.2891722 4.40253231 12.2490717 4.36709983 12.2025994 4.3364486 12.1544278 4.30741959 12.1031128 4.28487941 12.0533271 4.26549827 12.0003978 4.25098376 11.9506121 4.23971367 11.9009113 4.23160262 11.8559682 4.22844358 11.8559682 4.24773934 11.9009113 4.25098376 11.9474686 4.25909481 11.9971694 4.2703649 12.0469552 4.28487941 12.096656 4.30417517 12.1448275 4.32680073 12.1929141 4.35258532 12.236243 4.38323655 12.2763435 4.41866903 12.3116862 4.45572372 12.3438006 4.49764503 12.3662297 4.54443298 12.3839011 4.59446535 12.3951156 4.64765675 12.3951156 4.70895921 12.3871295 4.77179849"></polygon>
                                    <polygon id="Fill-46" fill="#FEFEFE" points="12.238003 5.62644693 12.238003 5.62644693 12.4078237 4.77504291 12.3884695 4.77179849 12.2185631 5.62320251"></polygon>
                                    <polygon id="Fill-47" fill="#FBB331" points="11.839928 5.20361166 11.8366995 5.19407729 11.8303276 5.18606166 11.8191131 5.18133666 11.8030559 5.17652729 11.7853845 5.17492416 11.7645697 5.17332104 11.7404414 5.17332104 11.7163981 5.17492416 11.6907406 5.17813041 11.6649982 5.18133666 11.6393406 5.18445854 11.6152974 5.18766479 11.5912541 5.19247416 11.5703542 5.19559604 11.5495394 5.20040541 11.5334822 5.20361166 11.5221827 5.20521479 11.5093539 5.20993979 11.4933817 5.21474916 11.4757103 5.22107729 11.4548105 5.23069604 11.4356099 5.24023041 11.4130958 5.25136791 11.392281 5.26571166 11.3713811 5.28013979 11.3505663 5.29760541 11.3328949 5.31515541 11.3152235 5.33591166 11.3007805 5.35818666 11.289566 5.38206479 11.2799656 5.40754604 11.275123 5.43463041 11.2735088 5.48888354 11.2815799 5.53191479 11.2944086 5.56372416 11.3136093 5.58768666 11.3377375 5.60354916 11.3650092 5.61316791 11.392281 5.61789291 11.4195527 5.61949604 11.4676393 5.61789291 11.5125824 5.61316791 11.5542971 5.60515229 11.5912541 5.59401479 11.6265119 5.58127416 11.657012 5.56693041 11.685898 5.55098354 11.7115555 5.53191479 11.7340695 5.51428041 11.7532702 5.49360854 11.7709416 5.47445541 11.7853845 5.45378354 11.7965991 5.43463041 11.8045852 5.41556166 11.811042 5.39640854 11.8158847 5.37885854 11.8222566 5.33430854 11.8303276 5.28807104 11.8366995 5.24343666"></polygon>
                                    <polygon id="Fill-48" fill="#FEFEFE" points="15.1452859 5.759324 15.1485402 5.72270525 15.1614715 5.679674 15.1841657 5.64145212 15.2115699 5.60795525 15.2455684 5.58087087 15.2843625 5.56171775 15.3264109 5.54897712 15.3717136 5.54425212 15.4170162 5.54897712 15.4590646 5.56171775 15.4978588 5.58087087 15.5318572 5.60795525 15.5593471 5.64145212 15.5819556 5.679674 15.5949726 5.72270525 15.5981412 5.759324 15.5496699 5.759324 15.5480428 5.7306365 15.5383657 5.69562087 15.5220944 5.66372712 15.501113 5.63664275 15.4752503 5.61428337 15.4445061 5.59842087 15.4089662 5.587199 15.3717136 5.58399275 15.3345465 5.587199 15.298921 5.59842087 15.2681769 5.61428337 15.2423141 5.63664275 15.2213327 5.66372712 15.2051471 5.69562087 15.1954699 5.7306365 15.1922157 5.759324"></polygon>
                                    <polygon id="Fill-49" fill="#FEFEFE" points="15.2897156 5.76514944 15.2897156 5.66514944 15.3786938 5.66514944 15.398048 5.66682641 15.4158608 5.67018033 15.4287922 5.67512296 15.4400964 5.68183082 15.4482321 5.69180434 15.4546549 5.70186612 15.4579092 5.71351661 15.4595363 5.72516709 15.4579092 5.74017151 15.4546549 5.75182199 15.4498592 5.76179551 15.4466049 5.76514944 15.3786938 5.76514944 15.3851166 5.76347248 15.3964209 5.76179551 15.4061837 5.75852985 15.4142337 5.75517592 15.4207422 5.75014503 15.4239964 5.74511414 15.427165 5.73681758 15.427165 5.72516709 15.4255379 5.71678228 15.4223693 5.71016268 15.4174879 5.70680875 15.4126065 5.70345483 15.4045565 5.70186612 15.3964209 5.70018916 15.3883709 5.70018916 15.3786938 5.70018916 15.3301368 5.70018916 15.3301368 5.76514944"></polygon>
                                    <polygon id="Fill-50" fill="#FEFEFE" points="15.1452988 5.76188438 15.1436717 5.77141875 15.1485531 5.81765625 15.1614845 5.8606875 15.1841786 5.89890938 15.2115829 5.93080313 15.2455813 5.9578875 15.2843754 5.97864375 15.3264238 5.99138438 15.3717265 5.99610938 15.4170291 5.99138438 15.4590775 5.97864375 15.4978717 5.9578875 15.5318701 5.93080313 15.55936 5.89890938 15.5819685 5.8606875 15.5949855 5.81765625 15.5997813 5.77141875 15.5981541 5.76188438 15.5496829 5.76188438 15.55131 5.77141875 15.5480557 5.809725 15.5383786 5.84474063 15.5221073 5.87503125 15.5011259 5.90211563 15.4752632 5.92439063 15.444519 5.94194063 15.4089791 5.9531625 15.3717265 5.95628438 15.3345595 5.9531625 15.2989339 5.94194063 15.2681898 5.92439063 15.242327 5.90211563 15.2213456 5.87503125 15.20516 5.84474063 15.1954829 5.809725 15.1922286 5.77141875 15.1922286 5.76188438"></polygon>
                                    <polygon id="Fill-51" fill="#FEFEFE" points="15.2897156 5.76188438 15.2897156 5.86188438 15.3301368 5.86188438 15.3301368 5.77993993 15.3705581 5.77993993 15.419115 5.86188438 15.4514863 5.86188438 15.4029294 5.77993993 15.4142337 5.77993993 15.4255379 5.77664132 15.4353007 5.77334271 15.4433507 5.76683229 15.4466049 5.76188438 15.3786938 5.76188438 15.3705581 5.76353368 15.3301368 5.76353368 15.3301368 5.76188438"></polygon>
                                    <path d="M15.3717435,5.9537486 L15.3717435,5.9537486 L15.4089961,5.95054235 L15.444536,5.93940485 L15.4752802,5.92185485 L15.5011429,5.89949548 L15.5221243,5.87249548 L15.53831,5.84220485 L15.5480727,5.80710485 L15.5512413,5.76888298 L15.5480727,5.7306611 L15.53831,5.6955611 L15.5221243,5.66375173 L15.5011429,5.63666735 L15.4752802,5.61430798 L15.444536,5.5983611 L15.4089961,5.5872236 L15.3717435,5.58401735 L15.3345764,5.5872236 L15.2989509,5.5983611 L15.2682068,5.61430798 L15.242344,5.63666735 L15.2213626,5.66375173 L15.205177,5.6955611 L15.1954142,5.7306611 L15.1922456,5.76888298 L15.1954142,5.80710485 L15.205177,5.84220485 L15.2213626,5.87249548 L15.242344,5.89949548 L15.2682068,5.92185485 L15.2989509,5.93940485 L15.3345764,5.95054235 L15.3717435,5.9537486 M15.3729815,5.77276423 L15.3729815,5.77276423 L15.3879859,5.76896423 L15.3996364,5.76706423 L15.4096982,5.76326423 L15.4179947,5.75956423 L15.4247026,5.75386423 L15.4279683,5.74816423 L15.4313222,5.73876423 L15.4313222,5.72546423 L15.4296452,5.71606423 L15.4262913,5.70856423 L15.4213487,5.70476423 L15.4163178,5.70096423 L15.4080212,5.69906423 L15.3996364,5.69716423 L15.3913398,5.69716423 L15.3812781,5.69716423 L15.3313222,5.69716423 L15.3313222,5.77276423 L15.3729815,5.77276423 M15.3313222,5.8565486 L15.2909009,5.8565486 L15.2909009,5.66375173 L15.3797935,5.66375173 L15.3992334,5.66527048 L15.4170461,5.66847673 L15.4299775,5.6732861 L15.4412818,5.67961423 L15.4494174,5.68923298 L15.4558403,5.69876735 L15.4590945,5.70990485 L15.4607217,5.72104235 L15.4590945,5.73547048 L15.4558403,5.74660798 L15.4510445,5.75614235 L15.444536,5.7640736 L15.436486,5.7704861 L15.4267233,5.77369235 L15.415419,5.77681423 L15.4041147,5.77681423 L15.4526717,5.8565486 L15.4203004,5.8565486 L15.3717435,5.77681423 L15.3313222,5.77681423 L15.3313222,5.8565486 M15.1436887,5.76888298 L15.1436887,5.76888298 L15.1485701,5.72264548 L15.1615014,5.67961423 L15.18411,5.64139235 L15.2115999,5.60797985 L15.2455983,5.58089548 L15.2843924,5.56174235 L15.3264408,5.54900173 L15.3717435,5.54419235 L15.4170461,5.54900173 L15.4590945,5.56174235 L15.4978887,5.58089548 L15.5318871,5.60797985 L15.559377,5.64139235 L15.5819855,5.67961423 L15.5949169,5.72264548 L15.5997983,5.76888298 L15.5949169,5.81512048 L15.5819855,5.85815173 L15.559377,5.8963736 L15.5318871,5.92826735 L15.4978887,5.95535173 L15.4590945,5.9760236 L15.4170461,5.9888486 L15.3717435,5.9935736 L15.3264408,5.9888486 L15.2843924,5.9760236 L15.2455983,5.95535173 L15.2115999,5.92826735 L15.18411,5.8963736 L15.1615014,5.85815173 L15.1485701,5.81512048 L15.1436887,5.76888298" id="Stroke-52" stroke="#FEFEFE" stroke-width="0.5"></path>
                                    <polygon id="Fill-53" fill="#FEFEFE" points="12.3485838 5.9827952 12.8010734 5.9827952 12.9631745 5.06530748 12.9695464 5.02978962 12.9791467 4.99435714 12.988832 4.95883929 13.0016608 4.92340681 13.0177179 4.88788895 13.0369186 4.85407868 13.0578184 4.82180525 13.0834759 4.79115402 13.1123618 4.76374721 13.1443913 4.73796261 13.1813483 4.71380022 13.2230629 4.69441908 13.2696203 4.67828237 13.3209353 4.66539007 13.3770929 4.65574219 13.4397074 4.65249777 13.4621365 4.65249777 13.4749653 4.65249777 13.4798079 4.65249777 13.5519378 4.23806585 13.5070796 4.24131027 13.4637507 4.2461769 13.4236503 4.25420257 13.385079 4.26547266 13.3498212 4.27836496 13.3160926 4.29450167 13.2840632 4.3122606 13.2535631 4.33164174 13.2246772 4.35418192 13.1974054 4.37680748 13.1717479 4.40259208 13.1460055 4.42837667 13.1219622 4.45578348 13.0979189 4.48643471 13.0738756 4.51546373 13.0513616 4.54765179 13.0995331 4.25582478 12.6486577 4.25582478"></polygon>
                                    <polyline id="Stroke-54" stroke="#FEFEFE" stroke-width="0.5" points="12.3485838 5.9827952 12.8010734 5.9827952 12.9631745 5.06530748 12.9695464 5.02978962 12.9791467 4.99435714 12.988832 4.95883929 13.0016608 4.92340681 13.0177179 4.88788895 13.0369186 4.85407868 13.0578184 4.82180525 13.0834759 4.79115402 13.1123618 4.76374721 13.1443913 4.73796261 13.1813483 4.71380022 13.2230629 4.69441908 13.2696203 4.67828237 13.3209353 4.66539007 13.3770929 4.65574219 13.4397074 4.65249777 13.4621365 4.65249777 13.4749653 4.65249777 13.4798079 4.65249777 13.5519378 4.23806585 13.5070796 4.24131027 13.4637507 4.2461769 13.4236503 4.25420257 13.385079 4.26547266 13.3498212 4.27836496 13.3160926 4.29450167 13.2840632 4.3122606 13.2535631 4.33164174 13.2246772 4.35418192 13.1974054 4.37680748 13.1717479 4.40259208 13.1460055 4.42837667 13.1219622 4.45578348 13.0979189 4.48643471 13.0738756 4.51546373 13.0513616 4.54765179 13.0995331 4.25582478 12.6486577 4.25582478 12.3485838 5.9827952"></polyline>
                                    <polygon id="Fill-55" fill="#FEFEFE" points="8.09973478 5.9827952 8.55222444 5.9827952 8.56021055 5.9827952 8.71424054 5.06530748 8.7206974 5.02978962 8.72868351 4.99597935 8.73675458 4.96208371 8.74796912 4.92981027 8.76079787 4.89762221 8.77685505 4.86697098 8.79614066 4.83794196 8.81856974 4.81053516 8.84422725 4.78628739 8.87311318 4.762125 8.90845597 4.74282924 8.94694223 4.72507031 8.99188534 4.7105558 9.04158614 4.6976635 9.09612958 4.68955246 9.15874409 4.68477121 9.16350177 4.68477121 9.16995863 4.68639342 9.1780297 4.68793025 9.18601581 4.68793025 9.19400192 4.68955246 9.20045878 4.69117467 9.20521646 4.69279687 9.20683067 4.69279687 9.20844489 4.68639342 9.21328753 4.66701228 9.21965943 4.63798326 9.2277305 4.6024654 9.23894504 4.56054408 9.25015957 4.51546373 9.26460254 4.47029799 9.27904551 4.42513225 9.29187426 4.39448103 9.30793144 4.3638298 9.32398862 4.33326395 9.3400458 4.30577176 9.35448877 4.28160937 9.36570331 4.26231362 9.37377438 4.25095815 9.37691785 4.2461769 9.37538859 4.2461769 9.36893174 4.24455469 9.36086067 4.24293248 9.34964613 4.24131027 9.33843159 4.24131027 9.32560284 4.23968806 9.3143883 4.23806585 9.30317376 4.23806585 9.253388 4.24131027 9.20844489 4.2461769 9.1667302 4.25420257 9.12824394 4.26393583 9.0913719 4.27682812 9.05764332 4.29287946 9.02714317 4.30901618 8.99825724 4.32839732 8.97098552 4.34931529 8.94532801 4.37356306 8.92128472 4.39772545 8.89715647 4.42513225 8.87311318 4.45253906 8.8506841 4.48319029 8.82664081 4.51546373 8.80251256 4.54765179 8.86028443 4.25582478 8.39980866 4.25582478"></polygon>
                                    <polyline id="Stroke-56" stroke="#FEFEFE" stroke-width="0.5" points="8.09973478 5.9827952 8.55222444 5.9827952 8.56021055 5.9827952 8.71424054 5.06530748 8.7206974 5.02978962 8.72868351 4.99597935 8.73675458 4.96208371 8.74796912 4.92981027 8.76079787 4.89762221 8.77685505 4.86697098 8.79614066 4.83794196 8.81856974 4.81053516 8.84422725 4.78628739 8.87311318 4.762125 8.90845597 4.74282924 8.94694223 4.72507031 8.99188534 4.7105558 9.04158614 4.6976635 9.09612958 4.68955246 9.15874409 4.68477121 9.16350177 4.68477121 9.16995863 4.68639342 9.1780297 4.68793025 9.18601581 4.68793025 9.19400192 4.68955246 9.20045878 4.69117467 9.20521646 4.69279687 9.20683067 4.69279687 9.20844489 4.68639342 9.21328753 4.66701228 9.21965943 4.63798326 9.2277305 4.6024654 9.23894504 4.56054408 9.25015957 4.51546373 9.26460254 4.47029799 9.27904551 4.42513225 9.29187426 4.39448103 9.30793144 4.3638298 9.32398862 4.33326395 9.3400458 4.30577176 9.35448877 4.28160937 9.36570331 4.26231362 9.37377438 4.25095815 9.37691785 4.2461769 9.37538859 4.2461769 9.36893174 4.24455469 9.36086067 4.24293248 9.34964613 4.24131027 9.33843159 4.24131027 9.32560284 4.23968806 9.3143883 4.23806585 9.30317376 4.23806585 9.253388 4.24131027 9.20844489 4.2461769 9.1667302 4.25420257 9.12824394 4.26393583 9.0913719 4.27682812 9.05764332 4.29287946 9.02714317 4.30901618 8.99825724 4.32839732 8.97098552 4.34931529 8.94532801 4.37356306 8.92128472 4.39772545 8.89715647 4.42513225 8.87311318 4.45253906 8.8506841 4.48319029 8.82664081 4.51546373 8.80251256 4.54765179 8.86028443 4.25582478 8.39980866 4.25582478 8.09973478 5.9827952"></polyline>
                                    <polygon id="Fill-57" fill="#FBB331" points="15.1485143 7.67703465 15.1485143 7.67070653 15.1614457 7.62919403 15.1841399 7.59257528 15.2115441 7.56068153 15.2455425 7.53520028 15.2843367 7.51613153 15.3263851 7.50499403 15.3716877 7.50018465 15.4169904 7.50499403 15.4590388 7.51613153 15.4978329 7.53520028 15.5318314 7.56068153 15.5593212 7.59257528 15.5820154 7.62919403 15.5949468 7.67070653 15.5949468 7.67703465 15.548017 7.67703465 15.5383399 7.64353778 15.5221542 7.61333153 15.5010872 7.58616278 15.4752244 7.56388778 15.4444803 7.54633778 15.4089404 7.53520028 15.3716877 7.53199403 15.3345207 7.53520028 15.2988952 7.54633778 15.268151 7.56388778 15.2422883 7.58616278 15.2213069 7.61333153 15.2051212 7.64353778 15.1954441 7.67703465"></polygon>
                                    <polygon id="Fill-58" fill="#FBB331" points="15.3786683 7.62271272 15.2896901 7.62271272 15.2896901 7.68881272 15.330197 7.68881272 15.330197 7.65111272 15.3786683 7.65111272 15.3883454 7.65111272 15.396481 7.65111272 15.404531 7.65291272 15.412581 7.65481272 15.4174624 7.65861272 15.4222582 7.66231272 15.4255124 7.67001272 15.4271396 7.67931272 15.4271396 7.68881272 15.4595108 7.68881272 15.4578837 7.67181272 15.4546294 7.65861272 15.4482066 7.64731272 15.4400709 7.63781272 15.4288523 7.63031272 15.4159209 7.62651272 15.3981082 7.62271272"></polygon>
                                    <polygon id="Fill-59" fill="#FBB331" points="15.1493547 7.6791144 15.1436547 7.7207144 15.2003547 7.7207144 15.2041547 7.6810144 15.2041547 7.6791144"></polygon>
                                    <polygon id="Fill-60" fill="#FBB331" points="15.427148 7.6791144 15.427148 7.6829144 15.4239794 7.6923144 15.4207252 7.6980144 15.4143023 7.7037144 15.4061667 7.7075144 15.3964895 7.7112144 15.3851853 7.7131144 15.3705411 7.7169144 15.3302055 7.7169144 15.3302055 7.6791144 15.2896986 7.6791144 15.2896986 7.7207144 15.4433337 7.7207144 15.4498422 7.7131144 15.4546379 7.7037144 15.4578922 7.6923144 15.4595193 7.6791144"></polygon>
                                    <polygon id="Fill-61" fill="#FBB331" points="15.5448039 7.6791144 15.5448039 7.6810144 15.5486039 7.7207144 15.6053039 7.7207144 15.5996039 7.6791144"></polygon>
                                    <polygon id="Fill-62" fill="#FBB331" points="15.1436972 7.71462372 15.1436972 7.71943309 15.1485786 7.76558622 15.1615099 7.80861747 15.1841185 7.84692372 15.2116083 7.88033622 15.2456068 7.90742059 15.2844009 7.92657372 15.3264493 7.93931434 15.371752 7.94412372 15.4170546 7.93931434 15.459103 7.92657372 15.4978972 7.90742059 15.5318956 7.88033622 15.5593855 7.84692372 15.581994 7.80861747 15.5949254 7.76558622 15.5998068 7.71943309 15.5998068 7.71462372 15.5512498 7.71462372 15.5512498 7.71943309 15.5479956 7.75765497 15.5383185 7.79267059 15.5221328 7.82296122 15.5011514 7.85004559 15.4752887 7.87240497 15.4445445 7.88987059 15.408919 7.90100809 15.371752 7.90421434 15.3345849 7.90100809 15.2989594 7.88987059 15.2682153 7.87240497 15.2423525 7.85004559 15.2213711 7.82296122 15.2051855 7.79267059 15.1954227 7.75765497 15.1922541 7.71943309 15.1922541 7.71462372"></polygon>
                                    <polygon id="Fill-63" fill="#FBB331" points="15.2897156 7.71462372 15.2897156 7.81462372 15.3301368 7.81462372 15.3301368 7.72841367 15.3705581 7.72841367 15.419115 7.81462372 15.4514863 7.81462372 15.4029294 7.72841367 15.4142337 7.72841367 15.4255379 7.72494335 15.4353007 7.72147303 15.4433507 7.71462372"></polygon>
                                </g>
                            </g>
                        </g>
                    </g>
                </g>
            </g>
        </g>
    </g>
</svg>