<?xml version="1.0" encoding="UTF-8"?>
<svg width="12px" height="12px" viewBox="0 0 12 12" version="1.1" xmlns="http://www.w3.org/2000/svg" xmlns:xlink="http://www.w3.org/1999/xlink">
    <!-- Generator: Sketch 60.1 (88133) - https://sketch.com -->
    <title>Shape</title>
    <desc>Created with Sketch.</desc>
    <g id="Desktop" stroke="none" stroke-width="1" fill="none" fill-rule="evenodd">
        <g id="1.10-Shipping-&amp;-Payment---Scrolled-Up-State---Desktop" transform="translate(-271.000000, -283.000000)" fill="#D88350" fill-rule="nonzero">
            <g id="Group-22">
                <g id="Group-21">
                    <g transform="translate(80.000000, 76.000000)">
                        <g id="Group-20">
                            <g transform="translate(0.000000, -231.000000)" id="Group-17">
                                <g transform="translate(24.000000, 32.000000)">
                                    <g id="Group-6" transform="translate(16.000000, 352.000000)">
                                        <g id="Group-13" transform="translate(151.000000, 52.000000)">
                                            <path d="M0.217650949,6.08148813 C0.217650949,6.08148813 0.510381555,7.26645309 1.5934848,8.59771001 C2.44240356,9.65101219 4.02314883,11.421145 5.60389411,12.5475932 C6.89190877,13.4692326 7.9164659,13.7764457 7.9164659,13.7764457 C8.85320384,14.1714341 9.48257464,13.9227377 9.48257464,13.9227377 C9.93630708,13.7910749 10.3461299,13.4838618 10.7120432,13.1912779 C11.121866,12.8548063 11.5170524,12.4890764 11.8536926,12.0940881 C11.9707848,11.9477961 12.0293309,11.8161333 11.9854213,11.6259538 C11.8244195,11.2602239 10.6827701,10.2215509 10.375403,9.97285453 C10.155855,9.79730416 9.95094361,9.6071246 9.71675912,9.46083263 C9.61430341,9.40231584 9.5118477,9.34379906 9.40939199,9.31454066 C9.1752075,9.27065307 9.01420567,9.49009103 8.86784037,9.636383 C8.58974629,9.91433774 8.10674079,10.60191 7.79937365,10.6896852 C7.49200652,10.7920896 6.62845123,10.2215509 6.35035715,9.98748372 C5.42825574,9.22676548 4.44760821,8.27586768 4.0085123,7.64681221 C3.80360088,7.35422827 3.20350313,6.50573484 3.30595885,6.19852171 C3.39377803,5.90593777 4.08169495,5.40854507 4.35978903,5.13059033 C4.50615433,4.98429836 4.72570229,4.83800639 4.6817927,4.58931004 C4.66715617,4.47227646 4.60861004,4.36987209 4.53542739,4.2820969 C4.38906209,4.04802975 4.1987872,3.8285918 4.02314883,3.62378304 C3.77432782,3.3165699 2.73513416,2.17549254 2.36922091,2.01457137 C2.19358254,1.97068378 2.04721724,2.02920057 1.90085194,2.14623414 C1.49102909,2.48270568 1.12511583,2.87769399 0.803112162,3.28731151 C0.510381555,3.65304143 0.203014419,4.06265895 0.0712856459,4.51616405 C0.0712856459,4.53079325 -0.162898839,5.15984872 0.217650949,6.08148813 Z" id="Shape"></path>
                                        </g>
                                    </g>
                                </g>
                            </g>
                        </g>
                    </g>
                </g>
            </g>
        </g>
    </g>
</svg>