<?xml version="1.0" encoding="UTF-8"?>
<svg width="18px" height="16px" viewBox="0 0 18 16" version="1.1" xmlns="http://www.w3.org/2000/svg" xmlns:xlink="http://www.w3.org/1999/xlink">
    <!-- Generator: Sketch 60.1 (88133) - https://sketch.com -->
    <title>Group 12</title>
    <desc>Created with Sketch.</desc>
    <defs>
        <linearGradient x1="100%" y1="60.3841126%" x2="0%" y2="60.3841146%" id="linearGradient-1">
            <stop stop-color="#F01E6C" offset="0%"></stop>
            <stop stop-color="#FC5D1F" offset="100%"></stop>
        </linearGradient>
    </defs>
    <g id="Desktop" stroke="none" stroke-width="1" fill="none" fill-rule="evenodd">
        <g id="1.1-Navigation-Drawer---Full-Length---Desktop" transform="translate(-1159.000000, -276.000000)">
            <g id="Group-8" transform="translate(1140.000000, 259.000000)">
                <g id="Group-12" transform="translate(16.000000, 13.000000)">
                    <rect id="Rectangle-11" x="0" y="0" width="24" height="24"></rect>
                    <g id="Слой_249" transform="translate(3.000000, 4.000000)" fill="url(#linearGradient-1)">
                        <path d="M13.586087,0.152380952 C11.7117391,0.152380952 10.2130435,1.53904762 9.28173913,2.45714286 C8.33086957,1.54666667 6.80478261,0.152380952 4.93434783,0.152380952 C2.19521739,0.152380952 0.293478261,2.03047619 0.293478261,4.72380952 C0.293478261,10.5714286 8.1626087,15.3904762 8.51086957,15.5847619 C8.89058977,15.8148007 9.37158415,15.8148007 9.75130435,15.5847619 C10.083913,15.3828571 17.9178261,10.5409524 17.9178261,4.72761905 C17.8904348,1.9047619 16.2430435,0.152380952 13.586087,0.152380952 Z M9.08608696,14.6285714 C9.08608696,14.6285714 1.44,10.0190476 1.44,4.72380952 C1.44,2.67809524 2.80565217,1.2952381 4.90695652,1.2952381 C7.00826087,1.2952381 8.87478261,3.96190476 9.26608696,3.96190476 C9.6573913,3.96190476 11.4691304,1.2952381 13.5704348,1.2952381 C15.6717391,1.2952381 16.7008696,2.67809524 16.7008696,4.72380952 C16.7165217,9.96952381 9.08608696,14.6285714 9.08608696,14.6285714 Z" id="Shape"></path>
                    </g>
                </g>
            </g>
        </g>
    </g>
</svg>