<?xml version="1.0" encoding="UTF-8"?>
<svg width="20px" height="20px" viewBox="0 0 20 20" version="1.1" xmlns="http://www.w3.org/2000/svg" xmlns:xlink="http://www.w3.org/1999/xlink">
    <!-- Generator: Sketch 60.1 (88133) - https://sketch.com -->
    <title>Radio - On</title>
    <desc>Created with Sketch.</desc>
    <g id="Desktop" stroke="none" stroke-width="1" fill="none" fill-rule="evenodd">
        <g id="1.1-Shipping-&amp;-Payment---Landing---No-Saved-Addresses---Desktop" transform="translate(-884.000000, -337.000000)" fill="#BB4225" fill-rule="nonzero">
            <g id="Group-11" transform="translate(860.000000, 213.000000)">
                <g id="Group-5" transform="translate(24.000000, 123.000000)">
                    <path d="M18.1818182,11 C18.1818182,6.48130659 14.5186934,2.81818182 10,2.81818182 C5.48130659,2.81818182 1.81818182,6.48130659 1.81818182,11 C1.81818182,15.5186934 5.48130659,19.1818182 10,19.1818182 C14.5186934,19.1818182 18.1818182,15.5186934 18.1818182,11 Z M10,1 C15.5228475,1 20,5.4771525 20,11 C20,16.5228475 15.5228475,21 10,21 C4.4771525,21 0,16.5228475 0,11 C0,5.4771525 4.4771525,1 10,1 Z M10,6.45454545 C7.48961477,6.45454545 5.45454545,8.48961477 5.45454545,11 C5.45454545,13.5103852 7.48961477,15.5454545 10,15.5454545 C12.5103852,15.5454545 14.5454545,13.5103852 14.5454545,11 C14.5454545,8.48961477 12.5103852,6.45454545 10,6.45454545 Z" id="Radio---On"></path>
                </g>
            </g>
        </g>
    </g>
</svg>