<?xml version="1.0" encoding="UTF-8"?>
<svg width="16px" height="20px" viewBox="0 0 16 20" version="1.1" xmlns="http://www.w3.org/2000/svg" xmlns:xlink="http://www.w3.org/1999/xlink">
    <!-- Generator: Sketch 60.1 (88133) - https://sketch.com -->
    <title>Group 3</title>
    <desc>Created with Sketch.</desc>
    <g id="Desktop" stroke="none" stroke-width="1" fill="none" fill-rule="evenodd">
        <g id="1.1-Shipping-&amp;-Payment---Landing---No-Saved-Addresses---Desktop" transform="translate(-900.000000, -450.000000)" fill="#4CAF50" fill-rule="nonzero">
            <g id="Group-11" transform="translate(860.000000, 213.000000)">
                <g id="Group-2" transform="translate(24.000000, 211.000000)">
                    <g id="Group-3" transform="translate(16.000000, 26.000000)">
                        <path d="M13.4602817,6.24296358 L13.4602817,5.37185247 C13.3993458,2.38772534 10.9287424,0 7.90197183,0 C4.87520128,0 2.40459783,2.38772534 2.34366197,5.37185247 L2.34366197,6.24296358 C1.00269318,6.4208638 0.00144955875,7.54870697 0,8.88296358 L0,17.267408 C0,18.7401674 1.21072293,19.9340747 2.70422535,19.9340747 L13.0997183,19.9340747 C14.5932207,19.9340747 15.8039437,18.7401674 15.8039437,17.267408 L15.8039437,8.88296358 C15.8024941,7.54870697 14.8012505,6.4208638 13.4602817,6.24296358 Z M7.90084507,1.66740803 C9.97453929,1.66985701 11.6549813,3.32695956 11.6574648,5.37185247 L11.6574648,6.21629692 L4.14422535,6.21629692 L4.14422535,5.37185247 C4.14670882,3.32695956 5.82715085,1.66985701 7.90084507,1.66740803 Z M14.0011268,17.267408 C14.0011268,17.7583278 13.5975525,18.1562969 13.0997183,18.1562969 L2.70197183,18.1562969 C2.20413769,18.1562969 1.80056338,17.7583278 1.80056338,17.267408 L1.80056338,8.88296358 C1.80056338,8.39204381 2.20413769,7.9940747 2.70197183,7.9940747 L13.0997183,7.9940747 C13.5975525,7.9940747 14.0011268,8.39204381 14.0011268,8.88296358 L14.0011268,17.267408 Z" id="Shape"></path>
                        <path d="M7.90084507,10.4385191 C6.81873206,10.4385191 5.8432134,11.0814342 5.42931752,12.067377 C5.01542163,13.0533199 5.24469059,14.1880493 6.01018242,14.9422733 C6.77567425,15.6964974 7.92657858,15.9216256 8.92605875,15.5126474 C9.92553893,15.1036693 10.5766863,14.141158 10.5757756,13.0740747 C10.5732904,11.618646 9.37677432,10.4397422 7.90084507,10.4385191 L7.90084507,10.4385191 Z M7.90084507,13.9340747 C7.41919054,13.9340747 7.02873239,13.5490396 7.02873239,13.0740747 C7.02873239,12.5991098 7.41919054,12.2140747 7.90084507,12.2140747 C8.3824996,12.2140747 8.77295775,12.5991098 8.77295775,13.0740747 C8.77295775,13.5490396 8.3824996,13.9340747 7.90084507,13.9340747 L7.90084507,13.9340747 Z" id="Shape"></path>
                    </g>
                </g>
            </g>
        </g>
    </g>
</svg>