<?xml version="1.0" encoding="UTF-8"?>
<svg width="24px" height="29px" viewBox="0 0 24 29" version="1.1" xmlns="http://www.w3.org/2000/svg" xmlns:xlink="http://www.w3.org/1999/xlink">
    <!-- Generator: Sketch 60.1 (88133) - https://sketch.com -->
    <title>Group</title>
    <desc>Created with Sketch.</desc>
    <defs>
        <filter x="-75.0%" y="-57.1%" width="250.0%" height="214.3%" filterUnits="objectBoundingBox" id="filter-1">
            <feOffset dx="0" dy="2" in="SourceAlpha" result="shadowOffsetOuter1"></feOffset>
            <feGaussianBlur stdDeviation="2" in="shadowOffsetOuter1" result="shadowBlurOuter1"></feGaussianBlur>
            <feColorMatrix values="0 0 0 0 0   0 0 0 0 0   0 0 0 0 0  0 0 0 0.2 0" type="matrix" in="shadowBlurOuter1" result="shadowMatrixOuter1"></feColorMatrix>
            <feMerge>
                <feMergeNode in="shadowMatrixOuter1"></feMergeNode>
                <feMergeNode in="SourceGraphic"></feMergeNode>
            </feMerge>
        </filter>
    </defs>
    <g id="Category-Listing" stroke="none" stroke-width="1" fill="none" fill-rule="evenodd">
        <g id="1-A----Category-Listing----Simple---Full-Length" transform="translate(-579.000000, -440.000000)" fill="#FFFFFF" fill-rule="nonzero">
            <g id="Group" filter="url(#filter-1)" transform="translate(583.000000, 442.000000)">
                <path d="M5.98491429,21 L3.24205714,21 C1.47748571,21 0.0420571429,19.628 0.0420571429,17.9375 L0.0420571429,3.0625 C0.0420571429,1.37375 1.47748571,0 3.24205714,0 L5.98491429,0 C7.74948571,0 9.18491472,1.37375 9.18491472,3.0625 L9.18491472,17.9375 C9.18582857,19.628 7.74948571,21 5.98491429,21 Z M3.24205714,0.875 C1.98125714,0.875 0.956342857,1.85675 0.956342857,3.0625 L0.956342857,17.9375 C0.956342857,19.14325 1.98125714,20.125 3.24205714,20.125 L5.98491429,20.125 C7.24571429,20.125 8.27062857,19.14325 8.27062857,17.9375 L8.27062857,3.0625 C8.27062857,1.85675 7.24571429,0.875 5.98491429,0.875 L3.24205714,0.875 Z" id="Shape"></path>
                <path d="M6.6624,20.916 C6.44845714,20.916 6.25645714,20.769 6.2144,20.561625 C6.16685714,20.3245 6.3296,20.09525 6.57645714,20.04975 L9.82491429,19.453 C11.0464,19.200125 11.8336,18.032875 11.5675429,16.855125 L8.2816,2.692375 C8.22491429,2.456125 8.38034286,2.2225 8.62811429,2.17 C8.87588571,2.114875 9.11725714,2.267125 9.17485714,2.5025 L12.4608,16.667875 C12.8338286,18.32075 11.7321143,19.954375 10.0068571,20.309625 L6.74834286,20.908125 C6.72091429,20.9125 6.69074286,20.916 6.6624,20.916 L6.6624,20.916 Z" id="Shape"></path>
                <path d="M10.7858286,19.978875 C10.6093714,19.978875 10.4393143,19.880875 10.3661714,19.712875 C10.2665143,19.492375 10.3734857,19.23425 10.6057143,19.138875 L13.7609143,17.842125 C14.8827429,17.329375 15.3645714,16.020375 14.8214857,14.931875 L8.09051429,2.212875 C7.97622857,1.99675 8.06765714,1.73425 8.29257143,1.624875 C8.5184,1.516375 8.79451429,1.602125 8.90697143,1.817375 L15.6425143,14.54425 C16.4068571,16.0755 15.7321143,17.90775 14.1376,18.63575 L10.9641143,19.94125 C10.9074286,19.9675 10.8461714,19.978875 10.7858286,19.978875 L10.7858286,19.978875 Z" id="Shape"></path>
                <path d="M6.8992,18.375 L2.32777143,18.375 C2.07634286,18.375 1.87062857,18.178125 1.87062857,17.9375 L1.87062857,15.3125 C1.87062857,15.071875 2.07634286,14.875 2.32777143,14.875 L6.8992,14.875 C7.15062857,14.875 7.35634286,15.071875 7.35634286,15.3125 L7.35634286,17.9375 C7.35634286,18.178125 7.15154286,18.375 6.8992,18.375 Z M2.78491429,17.5 L6.44205714,17.5 L6.44205714,15.75 L2.78491429,15.75 L2.78491429,17.5 L2.78491429,17.5 Z" id="Shape"></path>
                <path d="M6.8992,13.125 L2.32777143,13.125 C2.07634286,13.125 1.87062857,12.928125 1.87062857,12.6875 L1.87062857,10.0625 C1.87062857,9.821 2.07634286,9.625 2.32777143,9.625 L6.8992,9.625 C7.15062857,9.625 7.35634286,9.821 7.35634286,10.0625 L7.35634286,12.6875 C7.35634286,12.928125 7.15154286,13.125 6.8992,13.125 Z M2.78491429,12.25 L6.44205714,12.25 L6.44205714,10.5 L2.78491429,10.5 L2.78491429,12.25 L2.78491429,12.25 Z" id="Shape"></path>
                <path d="M6.8992,7.875 L2.32777143,7.875 C2.07634286,7.875 1.87062857,7.679 1.87062857,7.4375 L1.87062857,4.8125 C1.87062857,4.571 2.07634286,4.375 2.32777143,4.375 L6.8992,4.375 C7.15062857,4.375 7.35634286,4.571 7.35634286,4.8125 L7.35634286,7.4375 C7.35634286,7.679 7.15154286,7.875 6.8992,7.875 Z M2.78491429,7 L6.44205714,7 L6.44205714,5.25 L2.78491429,5.25 L2.78491429,7 L2.78491429,7 Z" id="Shape"></path>
                <path d="M4.61348571,3.910375 C3.85737143,3.910375 3.24205714,3.3215 3.24205714,2.597875 C3.24205714,1.87425 3.85737143,1.285375 4.61348571,1.285375 C5.3696,1.285375 5.98491429,1.87425 5.98491429,2.597875 C5.98491429,3.3215 5.37051429,3.910375 4.61348571,3.910375 Z M4.61348571,2.160375 C4.36205714,2.160375 4.15634286,2.35725 4.15634286,2.597875 C4.15634286,2.8385 4.36205714,3.035375 4.61348571,3.035375 C4.86491429,3.035375 5.07062857,2.8385 5.07062857,2.597875 C5.07062857,2.35725 4.86582857,2.160375 4.61348571,2.160375 Z" id="Shape"></path>
            </g>
        </g>
    </g>
</svg>