<?xml version="1.0" encoding="UTF-8"?>
<svg width="26px" height="17px" viewBox="0 0 26 17" version="1.1" xmlns="http://www.w3.org/2000/svg" xmlns:xlink="http://www.w3.org/1999/xlink">
    <!-- Generator: Sketch 60.1 (88133) - https://sketch.com -->
    <title>visa card</title>
    <desc>Created with Sketch.</desc>
    <defs>
        <rect id="path-1" x="0" y="0" width="26" height="17" rx="0.7"></rect>
    </defs>
    <g id="Desktop" stroke="none" stroke-width="1" fill="none" fill-rule="evenodd">
        <g id="1.1-Shipping-&amp;-Payment---Landing---No-Saved-Addresses---Desktop" transform="translate(-956.000000, -500.000000)">
            <g id="Group-11" transform="translate(860.000000, 213.000000)">
                <g id="Group-2" transform="translate(24.000000, 211.000000)">
                    <g id="Group-5" transform="translate(40.000000, 72.000000)">
                        <g id="Group-4" transform="translate(32.000000, 4.000000)">
                            <g id="visa-card">
                                <g id="Visa-icon">
                                    <mask id="mask-2" fill="white">
                                        <use xlink:href="#path-1"></use>
                                    </mask>
                                    <rect stroke="#D5D5D5" stroke-width="0.5" x="0.25" y="0.25" width="25.5" height="16.5" rx="0.7"></rect>
                                    <rect id="Rectangle-11-Copy-2" stroke="#F9A51A" stroke-width="0.5" fill="#F9A51A" mask="url(#mask-2)" x="0.25" y="0.25" width="25.5" height="2.33333333" rx="0.35"></rect>
                                    <path d="M0.35,14.4166667 C0.294771525,14.4166667 0.25,14.4614382 0.25,14.5166667 L0.25,16.65 C0.25,16.7052285 0.294771525,16.75 0.35,16.75 L25.65,16.75 C25.7052285,16.75 25.75,16.7052285 25.75,16.65 L25.75,14.5166667 C25.75,14.4614382 25.7052285,14.4166667 25.65,14.4166667 L0.35,14.4166667 Z" id="Rectangle-11-Copy-3" stroke="#00579F" stroke-width="0.5" fill="#00579F" mask="url(#mask-2)"></path>
                                </g>
                                <g id="visa-logo" transform="translate(3.561644, 6.375000)">
                                    <polygon id="Fill-1" fill="#00579F" points="7.45138468 0.107288889 6.51525517 5.58548642 8.01194695 5.58548642 8.94870785 0.107288889"></polygon>
                                    <g id="Group-10">
                                        <path d="M13.442561,0.242155556 C13.1459165,0.131130864 12.6811139,0.0121308642 12.1005578,0.0121308642 C10.6211238,0.0121308642 9.57881687,0.755093827 9.56997752,1.81990247 C9.56166432,2.60704444 10.3140616,3.04621111 10.88199,3.30824198 C11.4647559,3.57667407 11.6606948,3.74793333 11.6579588,3.98771728 C11.6542758,4.3548963 11.1925248,4.52269259 10.7621326,4.52269259 C10.1628455,4.52269259 9.8445236,4.43968642 9.352782,4.23516173 L9.15978948,4.14806296 L8.9496444,5.3743716 C9.2994302,5.52726667 9.94607092,5.6598037 10.617546,5.66662469 C12.1914769,5.66662469 13.2132639,4.93216173 13.2249445,3.79505062 C13.2305217,3.17192716 12.8315933,2.69760617 11.9677571,2.30671111 C11.4444464,2.05328519 11.1239146,1.88412469 11.127282,1.62755062 C11.127282,1.39983457 11.3985659,1.15637778 11.9846992,1.15637778 C12.4744414,1.14882222 12.8290678,1.25522963 13.1054028,1.36625432 L13.2395715,1.42942716 L13.442561,0.242155556" id="Fill-2" fill="#00579F"></path>
                                        <path d="M15.4357718,3.64342531 C15.559628,3.32777099 16.0323229,2.11206111 16.0323229,2.11206111 C16.0234835,2.12664753 16.1552319,1.79493765 16.2308926,1.58925864 L16.3321242,2.0615858 C16.3321242,2.0615858 16.6187718,3.3692216 16.6786479,3.64342531 L15.4357718,3.64342531 Z M17.2821441,0.112567284 L16.1251361,0.112567284 C15.7667214,0.112567284 15.4984891,0.210054938 15.3410644,0.566845062 L13.1173359,5.58719691 L14.6895831,5.58719691 C14.6895831,5.58719691 14.9467662,4.91212901 15.0048534,4.76395617 C15.1766946,4.76395617 16.7041136,4.76626481 16.9224667,4.76626481 C16.9672948,4.95798704 17.1046205,5.58719691 17.1046205,5.58719691 L18.4939773,5.58719691 L17.2821441,0.112567284 L17.2821441,0.112567284 Z" id="Fill-4" fill="#00579F"></path>
                                        <path d="M5.25941469,0.111287037 L3.79345019,3.84698457 L3.63728829,3.08775617 C3.3644259,2.21257099 2.51416438,1.2644537 1.56351308,0.789817901 L2.90393773,5.58066975 L4.4881812,5.5788858 L6.84544707,0.111287037 L5.25941469,0.111287037" id="Fill-6" fill="#00579F"></path>
                                        <path d="M2.43355791,0.107908025 L0.0191519303,0.107908025 L0,0.221870988 C1.87846762,0.675309259 3.12134371,1.77117963 3.63728829,3.08773519 L3.1122939,0.570370988 C3.02158531,0.22355 2.7587198,0.119975926 2.43355791,0.107908025" id="Fill-8" fill="#F9A51A"></path>
                                    </g>
                                </g>
                            </g>
                        </g>
                    </g>
                </g>
            </g>
        </g>
    </g>
</svg>